# File generated by ImageToStl.com - Free Image and 3D model conversion tools

mtllib retro-computer-pc-low-poly-3d-model.mtl

o obj1
v 1.25 0.375 1.4375
v 1.25 0 1.4375
v 1.25 0.375 0.4375
v 1.25 0 0.4375
v -0.125 0.375 0.4375
v -0.125 0 0.4375
v -0.125 0.375 1.4375
v -0.125 0 1.4375
v -0.125 0.375 0.4375
v -0.125 0.375 1.4375
v 1.25 0.375 0.4375
v 1.25 0.375 1.4375
v -0.125 0 1.4375
v -0.125 0 0.4375
v 1.25 0 1.4375
v 1.25 0 0.4375
v -0.125 0.375 1.4375
v -0.125 0 1.4375
v 1.25 0.375 1.4375
v 1.25 0 1.4375
v 1.25 0.375 0.4375
v 1.25 0 0.4375
v -0.125 0.375 0.4375
v -0.125 0 0.4375
vn 1 0 0
vn -1 0 0
vn 0 1 0
vn 0 -1 0
vn 0 0 1
vn 0 0 -1
vt 0.4375 1
vt 0.4375 0.95312
vt 0.5625 1
vt 0.5625 0.95312
vt 0.1875 0.5625
vt 0.1875 0.51562
vt 0.3125 0.5625
vt 0.3125 0.51562
vt 0.17188 0.875
vt 0.17188 1
vt 0 0.875
vt 0 1
vt 0.17188 0.75
vt 0 0.75
vt 0.35156 0.59375
vt 0.35156 0.54688
vt 0.52344 0.59375
vt 0.52344 0.54688
vt 0.35156 0.64062
vt 0.52344 0.64062
usemtl mat0
f 1/1/1 2/2/1 3/3/1
f 2/2/1 4/4/1 3/3/1
f 5/5/2 6/6/2 7/7/2
f 6/6/2 8/8/2 7/7/2
f 9/9/3 10/10/3 11/11/3
f 10/10/3 12/12/3 11/11/3
f 13/9/4 14/13/4 15/11/4
f 14/13/4 16/14/4 15/11/4
f 17/15/5 18/16/5 19/17/5
f 18/16/5 20/18/5 19/17/5
f 21/19/6 22/15/6 23/20/6
f 22/15/6 24/17/6 23/20/6
# Vertices: 24, normals: 6, texture coordinates: 20, faces: 12

o obj2
v 1 0.5 1.25
v 1 0.375 1.25
v 1 0.5 0.625
v 1 0.375 0.625
v 0.125 0.5 0.625
v 0.125 0.375 0.625
v 0.125 0.5 1.25
v 0.125 0.375 1.25
v 0.125 0.5 0.625
v 0.125 0.5 1.25
v 1 0.5 0.625
v 1 0.5 1.25
v 0.125 0.375 1.25
v 0.125 0.375 0.625
v 1 0.375 1.25
v 1 0.375 0.625
v 0.125 0.5 1.25
v 0.125 0.375 1.25
v 1 0.5 1.25
v 1 0.375 1.25
v 1 0.5 0.625
v 1 0.375 0.625
v 0.125 0.5 0.625
v 0.125 0.375 0.625
vn 1 0 0
vn -1 0 0
vn 0 1 0
vn 0 -1 0
vn 0 0 1
vn 0 0 -1
vt 0.52344 0.57031
vt 0.52344 0.55469
vt 0.60156 0.57031
vt 0.60156 0.55469
vt 0.50781 0.47656
vt 0.50781 0.46094
vt 0.58594 0.47656
vt 0.58594 0.46094
vt 0.10938 0.57812
vt 0.10938 0.65625
vt 0 0.57812
vt 0 0.65625
vt 0.35156 0.64062
vt 0.35156 0.5625
vt 0.24219 0.64062
vt 0.24219 0.5625
vt 0.52344 0.63281
vt 0.52344 0.61719
vt 0.63281 0.63281
vt 0.63281 0.61719
vt 0.19531 0.51562
vt 0.19531 0.5
vt 0.30469 0.51562
vt 0.30469 0.5
usemtl mat0
f 25/21/7 26/22/7 27/23/7
f 26/22/7 28/24/7 27/23/7
f 29/25/8 30/26/8 31/27/8
f 30/26/8 32/28/8 31/27/8
f 33/29/9 34/30/9 35/31/9
f 34/30/9 36/32/9 35/31/9
f 37/33/10 38/34/10 39/35/10
f 38/34/10 40/36/10 39/35/10
f 41/37/11 42/38/11 43/39/11
f 42/38/11 44/40/11 43/39/11
f 45/41/12 46/42/12 47/43/12
f 46/42/12 48/44/12 47/43/12
# Vertices: 24, normals: 6, texture coordinates: 24, faces: 12

o obj3
v 0.875 0.5625 1.1875
v 0.875 0.5 1.1875
v 0.875 0.5625 0.6875
v 0.875 0.5 0.6875
v 0.25 0.5625 0.6875
v 0.25 0.5 0.6875
v 0.25 0.5625 1.1875
v 0.25 0.5 1.1875
v 0.25 0.5625 0.6875
v 0.25 0.5625 1.1875
v 0.875 0.5625 0.6875
v 0.875 0.5625 1.1875
v 0.25 0.5 1.1875
v 0.25 0.5 0.6875
v 0.875 0.5 1.1875
v 0.875 0.5 0.6875
v 0.25 0.5625 1.1875
v 0.25 0.5 1.1875
v 0.875 0.5625 1.1875
v 0.875 0.5 1.1875
v 0.875 0.5625 0.6875
v 0.875 0.5 0.6875
v 0.25 0.5625 0.6875
v 0.25 0.5 0.6875
vn 1 0 0
vn -1 0 0
vn 0 1 0
vn 0 -1 0
vn 0 0 1
vn 0 0 -1
vt 0.52344 0.55469
vt 0.52344 0.54688
vt 0.58594 0.55469
vt 0.58594 0.54688
vt 0.53125 0.85938
vt 0.53125 0.85156
vt 0.59375 0.85938
vt 0.59375 0.85156
vt 0.53125 0.89062
vt 0.53125 0.95312
vt 0.45312 0.89062
vt 0.45312 0.95312
vt 0.53125 0.82812
vt 0.45312 0.82812
vt 0.42969 0.64844
vt 0.42969 0.64062
vt 0.50781 0.64844
vt 0.50781 0.64062
vt 0.3125 0.80469
vt 0.3125 0.79688
vt 0.39062 0.80469
vt 0.39062 0.79688
usemtl mat0
f 49/45/13 50/46/13 51/47/13
f 50/46/13 52/48/13 51/47/13
f 53/49/14 54/50/14 55/51/14
f 54/50/14 56/52/14 55/51/14
f 57/53/15 58/54/15 59/55/15
f 58/54/15 60/56/15 59/55/15
f 61/53/16 62/57/16 63/55/16
f 62/57/16 64/58/16 63/55/16
f 65/59/17 66/60/17 67/61/17
f 66/60/17 68/62/17 67/61/17
f 69/63/18 70/64/18 71/65/18
f 70/64/18 72/66/18 71/65/18
# Vertices: 24, normals: 6, texture coordinates: 22, faces: 12

o obj4
v 1.1875 0.75 0.875
v 1.1875 0.5625 0.875
v 1.1875 0.75 0.5625
v 1.1875 0.5625 0.5625
v -0.0625 0.75 0.5625
v -0.0625 0.5625 0.5625
v -0.0625 0.75 0.875
v -0.0625 0.5625 0.875
v -0.0625 0.75 0.5625
v -0.0625 0.75 0.875
v 1.1875 0.75 0.5625
v 1.1875 0.75 0.875
v -0.0625 0.5625 0.875
v -0.0625 0.5625 0.5625
v 1.1875 0.5625 0.875
v 1.1875 0.5625 0.5625
v -0.0625 0.75 0.875
v -0.0625 0.5625 0.875
v 1.1875 0.75 0.875
v 1.1875 0.5625 0.875
v 1.1875 0.75 0.5625
v 1.1875 0.5625 0.5625
v -0.0625 0.75 0.5625
v -0.0625 0.5625 0.5625
vn 1 0 0
vn -1 0 0
vn 0 1 0
vn 0 -1 0
vn 0 0 1
vn 0 0 -1
vt 0.24219 0.70312
vt 0.24219 0.67969
vt 0.28125 0.70312
vt 0.28125 0.67969
vt 0.24219 0.65625
vt 0.28125 0.65625
vt 0.58594 0.6875
vt 0.58594 0.72656
vt 0.42969 0.6875
vt 0.42969 0.72656
vt 0.58594 0.64844
vt 0.42969 0.64844
vt 0.3125 0.52344
vt 0.3125 0.5
vt 0.46875 0.52344
vt 0.46875 0.5
vt 0.46875 0.54688
vt 0.625 0.54688
vt 0.625 0.52344
usemtl mat0
f 73/67/19 74/68/19 75/69/19
f 74/68/19 76/70/19 75/69/19
f 77/68/20 78/71/20 79/70/20
f 78/71/20 80/72/20 79/70/20
f 81/73/21 82/74/21 83/75/21
f 82/74/21 84/76/21 83/75/21
f 85/73/22 86/77/22 87/75/22
f 86/77/22 88/78/22 87/75/22
f 89/79/23 90/80/23 91/81/23
f 90/80/23 92/82/23 91/81/23
f 93/83/24 94/81/24 95/84/24
f 94/81/24 96/85/24 95/84/24
# Vertices: 24, normals: 6, texture coordinates: 19, faces: 12

o obj5
v 1.1875 1.6875 0.875
v 1.1875 1.5 0.875
v 1.1875 1.6875 0.5625
v 1.1875 1.5 0.5625
v -0.0625 1.6875 0.5625
v -0.0625 1.5 0.5625
v -0.0625 1.6875 0.875
v -0.0625 1.5 0.875
v -0.0625 1.6875 0.5625
v -0.0625 1.6875 0.875
v 1.1875 1.6875 0.5625
v 1.1875 1.6875 0.875
v -0.0625 1.5 0.875
v -0.0625 1.5 0.5625
v 1.1875 1.5 0.875
v 1.1875 1.5 0.5625
v -0.0625 1.6875 0.875
v -0.0625 1.5 0.875
v 1.1875 1.6875 0.875
v 1.1875 1.5 0.875
v 1.1875 1.6875 0.5625
v 1.1875 1.5 0.5625
v -0.0625 1.6875 0.5625
v -0.0625 1.5 0.5625
vn 1 0 0
vn -1 0 0
vn 0 1 0
vn 0 -1 0
vn 0 0 1
vn 0 0 -1
vt 0.11719 0.75
vt 0.11719 0.72656
vt 0.15625 0.75
vt 0.15625 0.72656
vt 0.11719 0.70312
vt 0.15625 0.70312
vt 0.58594 0.76562
vt 0.58594 0.80469
vt 0.42969 0.76562
vt 0.42969 0.80469
vt 0.58594 0.72656
vt 0.42969 0.72656
vt 0.3125 0.54688
vt 0.3125 0.52344
vt 0.46875 0.54688
vt 0.46875 0.52344
vt 0.45312 0.82812
vt 0.45312 0.80469
vt 0.60938 0.82812
vt 0.60938 0.80469
usemtl mat0
f 97/86/25 98/87/25 99/88/25
f 98/87/25 100/89/25 99/88/25
f 101/87/26 102/90/26 103/89/26
f 102/90/26 104/91/26 103/89/26
f 105/92/27 106/93/27 107/94/27
f 106/93/27 108/95/27 107/94/27
f 109/92/28 110/96/28 111/94/28
f 110/96/28 112/97/28 111/94/28
f 113/98/29 114/99/29 115/100/29
f 114/99/29 116/101/29 115/100/29
f 117/102/30 118/103/30 119/104/30
f 118/103/30 120/105/30 119/104/30
# Vertices: 24, normals: 6, texture coordinates: 20, faces: 12

o obj6
v 1.1875 1.5 0.875
v 1.1875 0.75 0.875
v 1.1875 1.5 0.5625
v 1.1875 0.75 0.5625
v 1.03125 1.5 0.5625
v 1.03125 0.75 0.5625
v 1.03125 1.5 0.875
v 1.03125 0.75 0.875
v 1.03125 1.5 0.5625
v 1.03125 1.5 0.875
v 1.1875 1.5 0.5625
v 1.1875 1.5 0.875
v 1.03125 0.75 0.875
v 1.03125 0.75 0.5625
v 1.1875 0.75 0.875
v 1.1875 0.75 0.5625
v 1.03125 1.5 0.875
v 1.03125 0.75 0.875
v 1.1875 1.5 0.875
v 1.1875 0.75 0.875
v 1.1875 1.5 0.5625
v 1.1875 0.75 0.5625
v 1.03125 1.5 0.5625
v 1.03125 0.75 0.5625
vn 1 0 0
vn -1 0 0
vn 0 1 0
vn 0 -1 0
vn 0 0 1
vn 0 0 -1
vt 0.07812 0.53125
vt 0.07812 0.4375
vt 0.11719 0.53125
vt 0.11719 0.4375
vt 0.15625 0.53125
vt 0.15625 0.4375
vt 0.21094 0.59375
vt 0.21094 0.63281
vt 0.1875 0.59375
vt 0.1875 0.63281
vt 0.23438 0.63281
vt 0.23438 0.59375
vt 0 0.47656
vt 0 0.38281
vt 0.02344 0.47656
vt 0.02344 0.38281
vt 0.44531 0.5
vt 0.44531 0.40625
vt 0.46875 0.5
vt 0.46875 0.40625
usemtl mat0
f 121/106/31 122/107/31 123/108/31
f 122/107/31 124/109/31 123/108/31
f 125/108/32 126/109/32 127/110/32
f 126/109/32 128/111/32 127/110/32
f 129/112/33 130/113/33 131/114/33
f 130/113/33 132/115/33 131/114/33
f 133/116/34 134/117/34 135/113/34
f 134/117/34 136/112/34 135/113/34
f 137/118/35 138/119/35 139/120/35
f 138/119/35 140/121/35 139/120/35
f 141/122/36 142/123/36 143/124/36
f 142/123/36 144/125/36 143/124/36
# Vertices: 24, normals: 6, texture coordinates: 20, faces: 12

o obj7
v 0.09375 1.5 0.875
v 0.09375 0.75 0.875
v 0.09375 1.5 0.5625
v 0.09375 0.75 0.5625
v -0.0625 1.5 0.5625
v -0.0625 0.75 0.5625
v -0.0625 1.5 0.875
v -0.0625 0.75 0.875
v -0.0625 1.5 0.5625
v -0.0625 1.5 0.875
v 0.09375 1.5 0.5625
v 0.09375 1.5 0.875
v -0.0625 0.75 0.875
v -0.0625 0.75 0.5625
v 0.09375 0.75 0.875
v 0.09375 0.75 0.5625
v -0.0625 1.5 0.875
v -0.0625 0.75 0.875
v 0.09375 1.5 0.875
v 0.09375 0.75 0.875
v 0.09375 1.5 0.5625
v 0.09375 0.75 0.5625
v -0.0625 1.5 0.5625
v -0.0625 0.75 0.5625
vn 1 0 0
vn -1 0 0
vn 0 1 0
vn 0 -1 0
vn 0 0 1
vn 0 0 -1
vt 0.46875 0.52344
vt 0.46875 0.42969
vt 0.50781 0.52344
vt 0.50781 0.42969
vt 0.15625 0.51562
vt 0.15625 0.42188
vt 0.19531 0.51562
vt 0.19531 0.42188
vt 0.10156 0.53906
vt 0.10156 0.57812
vt 0.07812 0.53906
vt 0.07812 0.57812
vt 0.55469 0.9375
vt 0.55469 0.89844
vt 0.53125 0.9375
vt 0.53125 0.89844
vt 0.04688 0.47656
vt 0.04688 0.38281
vt 0.07031 0.47656
vt 0.07031 0.38281
vt 0.02344 0.47656
vt 0.02344 0.38281
usemtl mat0
f 145/126/37 146/127/37 147/128/37
f 146/127/37 148/129/37 147/128/37
f 149/130/38 150/131/38 151/132/38
f 150/131/38 152/133/38 151/132/38
f 153/134/39 154/135/39 155/136/39
f 154/135/39 156/137/39 155/136/39
f 157/138/40 158/139/40 159/140/40
f 158/139/40 160/141/40 159/140/40
f 161/142/41 162/143/41 163/144/41
f 162/143/41 164/145/41 163/144/41
f 165/146/42 166/147/42 167/142/42
f 166/147/42 168/143/42 167/142/42
# Vertices: 24, normals: 6, texture coordinates: 22, faces: 12

o obj8
v 1.03125 1.5 0.8125
v 1.03125 0.75 0.8125
v 1.03125 1.5 0.625
v 1.03125 0.75 0.625
v 0.09375 1.5 0.625
v 0.09375 0.75 0.625
v 0.09375 1.5 0.8125
v 0.09375 0.75 0.8125
v 0.09375 1.5 0.625
v 0.09375 1.5 0.8125
v 1.03125 1.5 0.625
v 1.03125 1.5 0.8125
v 0.09375 0.75 0.8125
v 0.09375 0.75 0.625
v 1.03125 0.75 0.8125
v 1.03125 0.75 0.625
v 0.09375 1.5 0.8125
v 0.09375 0.75 0.8125
v 1.03125 1.5 0.8125
v 1.03125 0.75 0.8125
v 1.03125 1.5 0.625
v 1.03125 0.75 0.625
v 0.09375 1.5 0.625
v 0.09375 0.75 0.625
vn 1 0 0
vn -1 0 0
vn 0 1 0
vn 0 -1 0
vn 0 0 1
vn 0 0 -1
vt 0.19531 0.47656
vt 0.19531 0.38281
vt 0.21875 0.47656
vt 0.21875 0.38281
vt 0.24219 0.47656
vt 0.24219 0.38281
vt 0.625 0.5
vt 0.625 0.52344
vt 0.50781 0.5
vt 0.50781 0.52344
vt 0.625 0.47656
vt 0.50781 0.47656
vt 0 0.75
vt 0 0.65625
vt 0.11719 0.75
vt 0.11719 0.65625
vt 0.17188 0.79688
vt 0.17188 0.70312
vt 0.28906 0.79688
vt 0.28906 0.70312
usemtl mat0
f 169/148/43 170/149/43 171/150/43
f 170/149/43 172/151/43 171/150/43
f 173/150/44 174/151/44 175/152/44
f 174/151/44 176/153/44 175/152/44
f 177/154/45 178/155/45 179/156/45
f 178/155/45 180/157/45 179/156/45
f 181/154/46 182/158/46 183/156/46
f 182/158/46 184/159/46 183/156/46
f 185/160/47 186/161/47 187/162/47
f 186/161/47 188/163/47 187/162/47
f 189/164/48 190/165/48 191/166/48
f 190/165/48 192/167/48 191/166/48
# Vertices: 24, normals: 6, texture coordinates: 20, faces: 12

o obj9
v 1.125 1.5625 1.5
v 1.125 0.75 1.5
v 1.125 1.5625 0.875
v 1.125 0.75 0.875
v 0 1.5625 0.875
v 0 0.75 0.875
v 0 1.5625 1.5
v 0 0.75 1.5
v 0 1.5625 0.875
v 0 1.5625 1.5
v 1.125 1.5625 0.875
v 1.125 1.5625 1.5
v 0 0.75 1.5
v 0 0.75 0.875
v 1.125 0.75 1.5
v 1.125 0.75 0.875
v 0 1.5625 1.5
v 0 0.75 1.5
v 1.125 1.5625 1.5
v 1.125 0.75 1.5
v 1.125 1.5625 0.875
v 1.125 0.75 0.875
v 0 1.5625 0.875
v 0 0.75 0.875
vn 1 0 0
vn -1 0 0
vn 0 1 0
vn 0 -1 0
vn 0 0 1
vn 0 0 -1
vt 0.10938 0.63281
vt 0.10938 0.53125
vt 0.1875 0.63281
vt 0.1875 0.53125
vt 0 0.57812
vt 0 0.47656
vt 0.07812 0.57812
vt 0.07812 0.47656
vt 0.42969 0.71875
vt 0.42969 0.79688
vt 0.28906 0.71875
vt 0.28906 0.79688
vt 0.42969 0.64062
vt 0.28906 0.64062
vt 0.17188 0.89844
vt 0.17188 0.79688
vt 0.3125 0.89844
vt 0.3125 0.79688
vt 0.17188 1
vt 0.3125 1
usemtl mat0
f 193/168/49 194/169/49 195/170/49
f 194/169/49 196/171/49 195/170/49
f 197/172/50 198/173/50 199/174/50
f 198/173/50 200/175/50 199/174/50
f 201/176/51 202/177/51 203/178/51
f 202/177/51 204/179/51 203/178/51
f 205/176/52 206/180/52 207/178/52
f 206/180/52 208/181/52 207/178/52
f 209/182/53 210/183/53 211/184/53
f 210/183/53 212/185/53 211/184/53
f 213/186/54 214/182/54 215/187/54
f 214/182/54 216/184/54 215/187/54
# Vertices: 24, normals: 6, texture coordinates: 20, faces: 12

o obj10
v 1.0625 0.75 1.4375
v 1.0625 0.5625 1.4375
v 1.0625 0.75 0.875
v 1.0625 0.5625 0.875
v 0.0625 0.75 0.875
v 0.0625 0.5625 0.875
v 0.0625 0.75 1.4375
v 0.0625 0.5625 1.4375
v 0.0625 0.75 0.875
v 0.0625 0.75 1.4375
v 1.0625 0.75 0.875
v 1.0625 0.75 1.4375
v 0.0625 0.5625 1.4375
v 0.0625 0.5625 0.875
v 1.0625 0.5625 1.4375
v 1.0625 0.5625 0.875
v 0.0625 0.75 1.4375
v 0.0625 0.5625 1.4375
v 1.0625 0.75 1.4375
v 1.0625 0.5625 1.4375
v 1.0625 0.75 0.875
v 1.0625 0.5625 0.875
v 0.0625 0.75 0.875
v 0.0625 0.5625 0.875
vn 1 0 0
vn -1 0 0
vn 0 1 0
vn 0 -1 0
vn 0 0 1
vn 0 0 -1
vt 0.52344 0.61719
vt 0.52344 0.59375
vt 0.59375 0.61719
vt 0.59375 0.59375
vt 0.52344 0.57031
vt 0.59375 0.57031
vt 0.24219 0.63281
vt 0.24219 0.70312
vt 0.11719 0.63281
vt 0.11719 0.70312
vt 0.4375 1
vt 0.4375 0.92969
vt 0.3125 1
vt 0.3125 0.92969
vt 0.32031 0.5
vt 0.32031 0.47656
vt 0.44531 0.5
vt 0.44531 0.47656
vt 0.19531 0.5
vt 0.19531 0.47656
usemtl mat0
f 217/188/55 218/189/55 219/190/55
f 218/189/55 220/191/55 219/190/55
f 221/189/56 222/192/56 223/191/56
f 222/192/56 224/193/56 223/191/56
f 225/194/57 226/195/57 227/196/57
f 226/195/57 228/197/57 227/196/57
f 229/198/58 230/199/58 231/200/58
f 230/199/58 232/201/58 231/200/58
f 233/202/59 234/203/59 235/204/59
f 234/203/59 236/205/59 235/204/59
f 237/206/60 238/207/60 239/202/60
f 238/207/60 240/203/60 239/202/60
# Vertices: 24, normals: 6, texture coordinates: 20, faces: 12

o obj11
v 1.125 0.125 0.25
v 1.125 0 0.25
v 1.125 0.125 -0.25
v 1.125 0 -0.25
v 0 0.125 -0.25
v 0 0 -0.25
v 0 0.125 0.25
v 0 0 0.25
v 0 0.125 -0.25
v 0 0.125 0.25
v 1.125 0.125 -0.25
v 1.125 0.125 0.25
v 0 0 0.25
v 0 0 -0.25
v 1.125 0 0.25
v 1.125 0 -0.25
v 0 0.125 0.25
v 0 0 0.25
v 1.125 0.125 0.25
v 1.125 0 0.25
v 1.125 0.125 -0.25
v 1.125 0 -0.25
v 0 0.125 -0.25
v 0 0 -0.25
vn 1 0 0
vn -1 0 0
vn 0 1 0
vn 0 -1 0
vn 0 0 1
vn 0 0 -1
vt 0.38281 0.47656
vt 0.38281 0.46094
vt 0.44531 0.47656
vt 0.44531 0.46094
vt 0.53125 0.95312
vt 0.53125 0.9375
vt 0.59375 0.95312
vt 0.59375 0.9375
vt 0.45312 0.86719
vt 0.45312 0.92969
vt 0.3125 0.86719
vt 0.3125 0.92969
vt 0.45312 0.80469
vt 0.3125 0.80469
vt 0.52344 0.64844
vt 0.52344 0.63281
vt 0.66406 0.64844
vt 0.66406 0.63281
vt 0.24219 0.47656
vt 0.24219 0.46094
usemtl mat0
f 241/208/61 242/209/61 243/210/61
f 242/209/61 244/211/61 243/210/61
f 245/212/62 246/213/62 247/214/62
f 246/213/62 248/215/62 247/214/62
f 249/216/63 250/217/63 251/218/63
f 250/217/63 252/219/63 251/218/63
f 253/216/64 254/220/64 255/218/64
f 254/220/64 256/221/64 255/218/64
f 257/222/65 258/223/65 259/224/65
f 258/223/65 260/225/65 259/224/65
f 261/226/66 262/227/66 263/208/66
f 262/227/66 264/209/66 263/208/66
# Vertices: 24, normals: 6, texture coordinates: 20, faces: 12

o obj12
v -0.3125 0.125 0.1875
v -0.3125 0 0.1875
v -0.3125 0.125 -0.125
v -0.3125 0 -0.125
v -0.5 0.125 -0.125
v -0.5 0 -0.125
v -0.5 0.125 0.1875
v -0.5 0 0.1875
v -0.5 0.125 -0.125
v -0.5 0.125 0.1875
v -0.3125 0.125 -0.125
v -0.3125 0.125 0.1875
v -0.5 0 0.1875
v -0.5 0 -0.125
v -0.3125 0 0.1875
v -0.3125 0 -0.125
v -0.5 0.125 0.1875
v -0.5 0 0.1875
v -0.3125 0.125 0.1875
v -0.3125 0 0.1875
v -0.3125 0.125 -0.125
v -0.3125 0 -0.125
v -0.5 0.125 -0.125
v -0.5 0 -0.125
vn 1 0 0
vn -1 0 0
vn 0 1 0
vn 0 -1 0
vn 0 0 1
vn 0 0 -1
vt 0.24219 0.65625
vt 0.24219 0.64062
vt 0.28125 0.65625
vt 0.28125 0.64062
vt 0.1875 0.59375
vt 0.1875 0.57812
vt 0.22656 0.59375
vt 0.22656 0.57812
vt 0.55469 0.85938
vt 0.55469 0.89844
vt 0.53125 0.85938
vt 0.53125 0.89844
vt 0.26562 0.46094
vt 0.26562 0.42188
vt 0.24219 0.46094
vt 0.24219 0.42188
vt 0.21094 0.57812
vt 0.21094 0.5625
vt 0.23438 0.57812
vt 0.23438 0.5625
vt 0.1875 0.5625
usemtl mat0
f 265/228/67 266/229/67 267/230/67
f 266/229/67 268/231/67 267/230/67
f 269/232/68 270/233/68 271/234/68
f 270/233/68 272/235/68 271/234/68
f 273/236/69 274/237/69 275/238/69
f 274/237/69 276/239/69 275/238/69
f 277/240/70 278/241/70 279/242/70
f 278/241/70 280/243/70 279/242/70
f 281/244/71 282/245/71 283/246/71
f 282/245/71 284/247/71 283/246/71
f 285/233/72 286/248/72 287/244/72
f 286/248/72 288/245/72 287/244/72
# Vertices: 24, normals: 6, texture coordinates: 21, faces: 12

