# File generated by ImageToStl.com - Free Image and 3D model conversion tools

mtllib psx-wet-floor-sign.mtl

o obj1
v 0.21875 1.15244291 0.00057943
v 0.21875 1.15920665 0.03108868
v 0.375 0.06087364 0.27458325
v 0.375 0.05410991 0.244074
v -0.375 0.06087364 0.27458325
v -0.21875 1.15920665 0.03108868
v -0.21875 1.15244291 0.00057943
v -0.375 0.05410991 0.244074
v -0.21875 1.15920665 0.03108868
v 0.21875 1.15920665 0.03108868
v 0.21875 1.15244291 0.00057943
v -0.21875 1.15244291 0.00057943
v 0 0.17614691 0.21701905
v 0.1875 0.17614691 0.21701905
v 0.1875 0.18291064 0.2475283
v 0 0.18291064 0.2475283
v 0.15625 1.10667904 0.01072503
v -0.15625 1.10667904 0.01072503
v -0.21875 1.15244291 0.00057943
v 0.21875 1.15244291 0.00057943
v 0.15625 1.01515129 0.03101625
v 0.375 0.05410991 0.244074
v 0 1.01515129 0.03101625
v 0.078125 1.01515129 0.03101625
v 0.1875 0.17614691 0.21701905
v 0 0.17614691 0.21701905
v -0.15625 1.01515129 0.03101625
v -0.375 0.05410991 0.244074
v 0.15625 1.11344277 0.04123429
v 0.15625 1.02191502 0.0615255
v 0.375 0.06087364 0.27458325
v 0.21875 1.15920665 0.03108868
v -0.15625 1.11344277 0.04123429
v -0.21875 1.15920665 0.03108868
v -0.15625 1.02191502 0.0615255
v -0.375 0.06087364 0.27458325
v 0 0.18291064 0.2475283
v 0.1875 0.18291064 0.2475283
v 0.078125 1.02191502 0.0615255
v 0 1.02191502 0.0615255
v 0.15625 1.01515129 0.03101625
v 0.15625 1.02191502 0.0615255
v 0.15625 1.11344277 0.04123429
v 0.15625 1.10667904 0.01072503
v 0 1.02191502 0.0615255
v 0.078125 1.02191502 0.0615255
v 0.078125 1.01515129 0.03101625
v 0 1.01515129 0.03101625
v -0.15625 1.10667904 0.01072503
v -0.15625 1.11344277 0.04123429
v -0.15625 1.02191502 0.0615255
v -0.15625 1.01515129 0.03101625
v 0.15625 1.10667904 0.01072503
v 0.15625 1.11344277 0.04123429
v -0.15625 1.11344277 0.04123429
v -0.15625 1.10667904 0.01072503
v -0.1875 0.17614691 0.21701905
v -0.078125 1.01515129 0.03101625
v -0.1875 0.18291064 0.2475283
v -0.1875 0.17614691 0.21701905
v -0.078125 1.02191502 0.0615255
v -0.1875 0.18291064 0.2475283
v -0.078125 1.01515129 0.03101625
v -0.078125 1.02191502 0.0615255
v 0.25 0.06087364 0.27458325
v 0.1171875 1.02191502 0.0615255
v 0.1875 0.17614691 0.21701905
v 0.25 0.05410991 0.244074
v 0.25 0.06087364 0.27458325
v 0.1875 0.18291064 0.2475283
v 0.1171875 1.01515129 0.03101625
v 0.25 0.05410991 0.244074
v 0.1171875 1.02191502 0.0615255
v 0.1171875 1.01515129 0.03101625
v -0.1171875 1.02191502 0.0615255
v -0.25 0.06087364 0.27458325
v -0.1171875 1.01515129 0.03101625
v -0.1171875 1.02191502 0.0615255
v -0.25 0.05410991 0.244074
v -0.1171875 1.01515129 0.03101625
v -0.1875 0.18291064 0.2475283
v -0.25 0.06087364 0.27458325
v -0.25 0.05410991 0.244074
v -0.1875 0.17614691 0.21701905
v 0.375 0.06087364 0.27458325
v 0.25 0.06087364 0.27458325
v 0.25 0.05410991 0.244074
v 0.375 0.05410991 0.244074
v 0.15625 1.01515129 0.03101625
v 0.15625 1.02191502 0.0615255
v -0.375 0.05410991 0.244074
v -0.25 0.05410991 0.244074
v -0.25 0.06087364 0.27458325
v -0.375 0.06087364 0.27458325
v -0.15625 1.02191502 0.0615255
v -0.15625 1.01515129 0.03101625
vn 0.99049 0.13757 0
vn -0.99049 0.13757 0
vn 0 1 0
vn 0 -1 0
vn 0 0 -1
vn 0 0 1
vn -1 0 0
vn 1 0 0
vn -0.89443 -0.44721 0
vn 0.89443 -0.44721 0
vt 0.06836 0.78516
vt 0.05859 0.78516
vt 0.05859 0.67773
vt 0.06836 0.67773
vt 0.04883 0.78516
vt 0.04883 0.67773
vt 0.0293 0.69727
vt 0.09766 0.69727
vt 0.09766 0.70703
vt 0.0293 0.70703
vt 0.05859 0.69727
vt 0.08789 0.69727
vt 0.08789 0.70215
vt 0.05859 0.70215
vt 0.03418 0.80713
vt 0.08301 0.80713
vt 0.09277 0.81445
vt 0.02441 0.81445
vt 0.03418 0.79248
vt 0 0.63867
vt 0.05859 0.79248
vt 0.04639 0.79248
vt 0.0293 0.6582
vt 0.05859 0.6582
vt 0.08301 0.79248
vt 0.11719 0.63867
vt 0.08301 0.99268
vt 0.08301 0.97803
vt 0.11719 0.82422
vt 0.09277 1
vt 0.03418 0.99268
vt 0.02441 1
vt 0.03418 0.97803
vt 0 0.82422
vt 0.05859 0.84375
vt 0.08789 0.84375
vt 0.0708 0.97803
vt 0.05859 0.97803
vt 0.05859 0.7168
vt 0.06836 0.7168
vt 0.06836 0.73633
vt 0.05859 0.73633
vt 0.06348 0.72168
vt 0.07568 0.72168
vt 0.07568 0.72656
vt 0.06348 0.72656
vt 0.05859 0.72656
vt 0.04883 0.72656
vt 0.04883 0.70703
vt 0.05859 0.70703
vt 0.08789 0.67773
vt 0.08789 0.6875
vt 0.03906 0.6875
vt 0.03906 0.67773
vt 0.08789 0.6582
vt 0.0708 0.79248
vt 0.0293 0.70215
vt 0.04639 0.97803
vt 0.0293 0.84375
vt 0.05127 0.72656
vt 0.05127 0.72168
vt 0.09766 0.82422
vt 0.0769 0.97803
vt 0.04028 0.79248
vt 0.01953 0.63867
vt 0.08179 0.72168
vt 0.08179 0.72656
vt 0.04028 0.97803
vt 0.01953 0.82422
vt 0.04517 0.72656
vt 0.04517 0.72168
vt 0.09766 0.63867
vt 0.0769 0.79248
vt 0.03906 0.7168
vt 0.03906 0.69727
vt 0.04883 0.69727
vt 0.04883 0.7168
vt 0.06836 0.70703
vt 0.06836 0.69727
vt 0.08789 0.72656
vt 0.08789 0.72168
vt 0.03906 0.72656
vt 0.03906 0.72168
usemtl mat0
f 1/1/1 2/2/1 3/3/1
f 1/1/1 3/3/1 4/4/1
f 5/3/2 6/2/2 7/5/2
f 5/3/2 7/5/2 8/6/2
f 9/7/3 10/8/3 11/9/3
f 9/7/3 11/9/3 12/10/3
f 13/11/4 14/12/4 15/13/4
f 13/11/4 15/13/4 16/14/4
f 17/15/5 18/16/5 19/17/5
f 17/15/5 19/17/5 20/18/5
f 21/19/5 17/15/5 20/18/5
f 21/19/5 20/18/5 22/20/5
f 23/21/5 24/22/5 25/23/5
f 23/21/5 25/23/5 26/24/5
f 18/16/5 27/25/5 28/26/5
f 18/16/5 28/26/5 19/17/5
f 29/27/6 30/28/6 31/29/6
f 29/27/6 31/29/6 32/30/6
f 33/31/6 29/27/6 32/30/6
f 33/31/6 32/30/6 34/32/6
f 35/33/6 33/31/6 34/32/6
f 35/33/6 34/32/6 36/34/6
f 37/35/6 38/36/6 39/37/6
f 37/35/6 39/37/6 40/38/6
f 41/39/7 42/40/7 43/41/7
f 41/39/7 43/41/7 44/42/7
f 45/43/3 46/44/3 47/45/3
f 45/43/3 47/45/3 48/46/3
f 49/47/8 50/48/8 51/49/8
f 49/47/8 51/49/8 52/50/8
f 53/51/4 54/52/4 55/53/4
f 53/51/4 55/53/4 56/54/4
f 26/24/5 57/55/5 58/56/5
f 26/24/5 58/56/5 23/21/5
f 16/14/4 59/57/4 60/7/4
f 16/14/4 60/7/4 13/11/4
f 40/38/6 61/58/6 62/59/6
f 40/38/6 62/59/6 37/35/6
f 48/46/3 63/60/3 64/61/3
f 48/46/3 64/61/3 45/43/3
f 38/36/6 65/62/6 66/63/6
f 38/36/6 66/63/6 39/37/6
f 67/48/9 68/49/9 69/50/9
f 67/48/9 69/50/9 70/47/9
f 24/22/5 71/64/5 72/65/5
f 24/22/5 72/65/5 25/23/5
f 46/44/3 73/66/3 74/67/3
f 46/44/3 74/67/3 47/45/3
f 61/58/6 75/68/6 76/69/6
f 61/58/6 76/69/6 62/59/6
f 63/60/3 77/70/3 78/71/3
f 63/60/3 78/71/3 64/61/3
f 57/55/5 79/72/5 80/73/5
f 57/55/5 80/73/5 58/56/5
f 81/74/10 82/75/10 83/76/10
f 81/74/10 83/76/10 84/77/10
f 85/78/4 86/49/4 87/76/4
f 85/78/4 87/76/4 88/79/4
f 22/20/5 72/65/5 71/64/5
f 22/20/5 71/64/5 21/19/5
f 89/80/3 74/67/3 73/66/3
f 89/80/3 73/66/3 90/81/3
f 30/28/6 66/63/6 65/62/6
f 30/28/6 65/62/6 31/29/6
f 91/74/4 92/39/4 93/47/4
f 91/74/4 93/47/4 94/82/4
f 36/34/6 76/69/6 75/68/6
f 36/34/6 75/68/6 35/33/6
f 95/83/3 78/71/3 77/70/3
f 95/83/3 77/70/3 96/82/3
f 27/25/5 80/73/5 79/72/5
f 27/25/5 79/72/5 28/26/5
# Vertices: 96, normals: 10, texture coordinates: 83, faces: 72

o obj2
v 0.375 0.06087364 -0.27458325
v 0.21875 1.15920665 -0.03108868
v 0.21875 1.15244291 -0.00057943
v 0.375 0.05410991 -0.244074
v -0.21875 1.15244291 -0.00057943
v -0.21875 1.15920665 -0.03108868
v -0.375 0.06087364 -0.27458325
v -0.375 0.05410991 -0.244074
v 0.21875 1.15244291 -0.00057943
v 0.21875 1.15920665 -0.03108868
v -0.21875 1.15920665 -0.03108868
v -0.21875 1.15244291 -0.00057943
v 0.1875 0.18291064 -0.2475283
v 0.1875 0.17614691 -0.21701905
v 0 0.17614691 -0.21701905
v 0 0.18291064 -0.2475283
v -0.21875 1.15244291 -0.00057943
v -0.15625 1.10667904 -0.01072503
v 0.15625 1.10667904 -0.01072503
v 0.21875 1.15244291 -0.00057943
v 0.15625 1.01515129 -0.03101625
v 0.375 0.05410991 -0.244074
v 0.1875 0.17614691 -0.21701905
v 0.078125 1.01515129 -0.03101625
v 0 1.01515129 -0.03101625
v 0 0.17614691 -0.21701905
v -0.375 0.05410991 -0.244074
v -0.15625 1.01515129 -0.03101625
v 0.375 0.06087364 -0.27458325
v 0.15625 1.02191502 -0.0615255
v 0.15625 1.11344277 -0.04123429
v 0.21875 1.15920665 -0.03108868
v -0.15625 1.11344277 -0.04123429
v -0.21875 1.15920665 -0.03108868
v -0.15625 1.02191502 -0.0615255
v -0.375 0.06087364 -0.27458325
v 0.078125 1.02191502 -0.0615255
v 0.1875 0.18291064 -0.2475283
v 0 0.18291064 -0.2475283
v 0 1.02191502 -0.0615255
v 0.15625 1.11344277 -0.04123429
v 0.15625 1.02191502 -0.0615255
v 0.15625 1.01515129 -0.03101625
v 0.15625 1.10667904 -0.01072503
v 0.078125 1.01515129 -0.03101625
v 0.078125 1.02191502 -0.0615255
v 0 1.02191502 -0.0615255
v 0 1.01515129 -0.03101625
v -0.15625 1.02191502 -0.0615255
v -0.15625 1.11344277 -0.04123429
v -0.15625 1.10667904 -0.01072503
v -0.15625 1.01515129 -0.03101625
v -0.15625 1.11344277 -0.04123429
v 0.15625 1.11344277 -0.04123429
v 0.15625 1.10667904 -0.01072503
v -0.15625 1.10667904 -0.01072503
v -0.078125 1.01515129 -0.03101625
v -0.1875 0.17614691 -0.21701905
v -0.1875 0.17614691 -0.21701905
v -0.1875 0.18291064 -0.2475283
v -0.1875 0.18291064 -0.2475283
v -0.078125 1.02191502 -0.0615255
v -0.078125 1.02191502 -0.0615255
v -0.078125 1.01515129 -0.03101625
v 0.1171875 1.02191502 -0.0615255
v 0.25 0.06087364 -0.27458325
v 0.25 0.06087364 -0.27458325
v 0.25 0.05410991 -0.244074
v 0.1875 0.17614691 -0.21701905
v 0.1875 0.18291064 -0.2475283
v 0.25 0.05410991 -0.244074
v 0.1171875 1.01515129 -0.03101625
v 0.1171875 1.01515129 -0.03101625
v 0.1171875 1.02191502 -0.0615255
v -0.25 0.06087364 -0.27458325
v -0.1171875 1.02191502 -0.0615255
v -0.1171875 1.02191502 -0.0615255
v -0.1171875 1.01515129 -0.03101625
v -0.1171875 1.01515129 -0.03101625
v -0.25 0.05410991 -0.244074
v -0.25 0.05410991 -0.244074
v -0.25 0.06087364 -0.27458325
v -0.1875 0.18291064 -0.2475283
v -0.1875 0.17614691 -0.21701905
v 0.25 0.05410991 -0.244074
v 0.25 0.06087364 -0.27458325
v 0.375 0.06087364 -0.27458325
v 0.375 0.05410991 -0.244074
v 0.15625 1.01515129 -0.03101625
v 0.15625 1.02191502 -0.0615255
v -0.25 0.06087364 -0.27458325
v -0.25 0.05410991 -0.244074
v -0.375 0.05410991 -0.244074
v -0.375 0.06087364 -0.27458325
v -0.15625 1.02191502 -0.0615255
v -0.15625 1.01515129 -0.03101625
vn 0.99049 0.13757 0
vn -0.99049 0.13757 0
vn 0 1 0
vn 0 -1 0
vn 0 0 1
vn 0 0 -1
vn -1 0 0
vn 1 0 0
vn -0.89443 -0.44721 0
vn 0.89443 -0.44721 0
vt 0.05534 0.66797
vt 0.05534 0.74609
vt 0.03906 0.74609
vt 0.03906 0.66797
vt 0.05859 0.77539
vt 0.04883 0.77539
vt 0.04883 0.6875
vt 0.05859 0.6875
vt 0.09766 0.69727
vt 0.09766 0.70703
vt 0.0293 0.70703
vt 0.0293 0.69727
vt 0.08789 0.6875
vt 0.08789 0.69238
vt 0.05859 0.69238
vt 0.02441 0.81445
vt 0.03418 0.80713
vt 0.08301 0.80713
vt 0.09277 0.81445
vt 0.08301 0.79248
vt 0.11719 0.63867
vt 0.08789 0.6582
vt 0.0708 0.79248
vt 0.05859 0.79248
vt 0.05859 0.6582
vt 0 0.63867
vt 0.03418 0.79248
vt 0 0.82422
vt 0.03418 0.97803
vt 0.03418 0.99268
vt 0.02441 1
vt 0.08301 0.99268
vt 0.09277 1
vt 0.08301 0.97803
vt 0.11719 0.82422
vt 0.04639 0.97803
vt 0.0293 0.84375
vt 0.05859 0.84375
vt 0.05859 0.97803
vt 0.04883 0.75586
vt 0.04883 0.73633
vt 0.05664 0.73633
vt 0.05664 0.75586
vt 0.07812 0.77051
vt 0.07812 0.77539
vt 0.06836 0.77539
vt 0.06836 0.77051
vt 0.05664 0.70703
vt 0.05664 0.72656
vt 0.04883 0.72656
vt 0.04883 0.70703
vt 0.03906 0.69727
vt 0.08789 0.69727
vt 0.08789 0.70703
vt 0.03906 0.70703
vt 0.04639 0.79248
vt 0.0293 0.6582
vt 0.0293 0.69238
vt 0.0293 0.6875
vt 0.08789 0.84375
vt 0.0708 0.97803
vt 0.05859 0.77051
vt 0.04028 0.97803
vt 0.01953 0.82422
vt 0.06836 0.6875
vt 0.06836 0.70703
vt 0.05859 0.70703
vt 0.09766 0.63867
vt 0.0769 0.79248
vt 0.08301 0.77051
vt 0.08301 0.77539
vt 0.09766 0.82422
vt 0.0769 0.97803
vt 0.05371 0.77539
vt 0.05371 0.77051
vt 0.04028 0.79248
vt 0.01953 0.63867
vt 0.07161 0.72005
vt 0.08789 0.72005
vt 0.08789 0.72873
vt 0.07161 0.72873
vt 0.04883 0.69727
vt 0.06445 0.6875
vt 0.06445 0.69727
vt 0.08789 0.77051
vt 0.08789 0.77539
vt 0.06445 0.66797
vt 0.06445 0.67773
vt 0.04883 0.67773
vt 0.04883 0.66797
vt 0.04883 0.77051
usemtl mat0
f 97/84/11 98/85/11 99/86/11
f 97/84/11 99/86/11 100/87/11
f 101/88/12 102/89/12 103/90/12
f 101/88/12 103/90/12 104/91/12
f 105/92/13 106/93/13 107/94/13
f 105/92/13 107/94/13 108/95/13
f 109/96/14 110/97/14 111/98/14
f 109/96/14 111/98/14 112/91/14
f 113/99/15 114/100/15 115/101/15
f 113/99/15 115/101/15 116/102/15
f 116/102/15 115/101/15 117/103/15
f 116/102/15 117/103/15 118/104/15
f 119/105/15 120/106/15 121/107/15
f 119/105/15 121/107/15 122/108/15
f 123/109/15 124/110/15 114/100/15
f 123/109/15 114/100/15 113/99/15
f 125/111/16 126/112/16 127/113/16
f 125/111/16 127/113/16 128/114/16
f 128/114/16 127/113/16 129/115/16
f 128/114/16 129/115/16 130/116/16
f 130/116/16 129/115/16 131/117/16
f 130/116/16 131/117/16 132/118/16
f 133/119/16 134/120/16 135/121/16
f 133/119/16 135/121/16 136/122/16
f 137/123/17 138/124/17 139/125/17
f 137/123/17 139/125/17 140/126/17
f 141/127/13 142/128/13 143/129/13
f 141/127/13 143/129/13 144/130/13
f 145/131/18 146/132/18 147/133/18
f 145/131/18 147/133/18 148/134/18
f 149/135/14 150/136/14 151/137/14
f 149/135/14 151/137/14 152/138/14
f 153/139/15 154/140/15 122/108/15
f 153/139/15 122/108/15 121/107/15
f 155/141/14 156/142/14 112/91/14
f 155/141/14 112/91/14 111/98/14
f 157/143/16 158/144/16 136/122/16
f 157/143/16 136/122/16 135/121/16
f 159/88/13 160/145/13 144/130/13
f 159/88/13 144/130/13 143/129/13
f 161/146/16 162/147/16 134/120/16
f 161/146/16 134/120/16 133/119/16
f 163/91/19 164/148/19 165/149/19
f 163/91/19 165/149/19 166/150/19
f 167/151/15 168/152/15 120/106/15
f 167/151/15 120/106/15 119/105/15
f 169/153/13 170/154/13 142/128/13
f 169/153/13 142/128/13 141/127/13
f 171/155/16 172/156/16 158/144/16
f 171/155/16 158/144/16 157/143/16
f 173/157/13 174/158/13 160/145/13
f 173/157/13 160/145/13 159/88/13
f 175/159/15 176/160/15 154/140/15
f 175/159/15 154/140/15 153/139/15
f 177/161/20 178/162/20 179/163/20
f 177/161/20 179/163/20 180/164/20
f 181/165/14 182/90/14 183/166/14
f 181/165/14 183/166/14 184/167/14
f 168/152/15 167/151/15 118/104/15
f 168/152/15 118/104/15 117/103/15
f 170/154/13 169/153/13 185/168/13
f 170/154/13 185/168/13 186/169/13
f 162/147/16 161/146/16 126/112/16
f 162/147/16 126/112/16 125/111/16
f 187/170/14 188/171/14 189/172/14
f 187/170/14 189/172/14 190/173/14
f 172/156/16 171/155/16 132/118/16
f 172/156/16 132/118/16 131/117/16
f 174/158/13 173/157/13 191/89/13
f 174/158/13 191/89/13 192/174/13
f 176/160/15 175/159/15 124/110/15
f 176/160/15 124/110/15 123/109/15
# Vertices: 96, normals: 10, texture coordinates: 91, faces: 72

