# File generated by ImageToStl.com - Free Image and 3D model conversion tools

mtllib psx-vending-machine.mtl

o obj1
v 0.4375 1.625 -0.5
v 0.4375 1.625 0.5
v 0.4375 0.0625 0.5
v 0.4375 0.0625 -0.5
v -0.375 0.0625 0.5
v -0.375 1.625 0.5
v -0.375 1.625 -0.5
v -0.375 0.0625 -0.5
v -0.375 1.625 0.5
v 0.4375 1.625 0.5
v 0.4375 1.625 -0.5
v -0.375 1.625 -0.5
v 0.4375 0.0625 -0.5
v 0.4375 0.0625 0.5
v -0.375 0.0625 0.5
v -0.375 0.0625 -0.5
v 0.4375 0.0625 0.5
v 0.4375 1.625 0.5
v -0.375 1.625 0.5
v -0.375 0.0625 0.5
v -0.375 1.625 -0.5
v 0.4375 1.625 -0.5
v 0.4375 0.0625 -0.5
v -0.375 0.0625 -0.5
vn 1 0 0
vn -1 0 0
vn 0 1 0
vn 0 -1 0
vn 0 0 1
vn 0 0 -1
vt 0.25 1
vt 0 1
vt 0 0.60938
vt 0.25 0.60938
vt 0.51562 0.60938
vt 0.51562 1
vt 0.26562 1
vt 0.26562 0.60938
vt 0 0.34375
vt 0.20312 0.34375
vt 0.20312 0.59375
vt 0 0.59375
vt 0.20312 0.20312
vt 0 0.20312
usemtl mat0
f 1/1/1 2/2/1 3/3/1
f 1/1/1 3/3/1 4/4/1
f 5/5/2 6/6/2 7/7/2
f 5/5/2 7/7/2 8/8/2
f 9/9/3 10/10/3 11/11/3
f 9/9/3 11/11/3 12/12/3
f 13/10/4 14/11/4 15/12/4
f 13/10/4 15/12/4 16/9/4
f 17/13/5 18/11/5 19/12/5
f 17/13/5 19/12/5 20/14/5
f 21/11/6 22/12/6 23/14/6
f 21/11/6 23/14/6 24/13/6
# Vertices: 24, normals: 6, texture coordinates: 14, faces: 12

o obj2
v -0.1875 0.0625 0.4375
v -0.1875 0.0625 0.3125
v -0.3125 0.0625 0.3125
v -0.3125 0.0625 0.4375
v -0.1875 0 0.4375
v -0.1875 0.0625 0.4375
v -0.3125 0.0625 0.4375
v -0.3125 0 0.4375
v -0.1875 0 0.4375
v -0.3125 0 0.4375
v -0.3125 0.0625 0.3125
v -0.1875 0.0625 0.3125
v -0.3125 0.0625 0.4375
v -0.3125 0 0.4375
v -0.1875 0.0625 0.3125
v -0.1875 0.0625 0.4375
vn 0 1 0
vn 0 0 1
vn 0 -0.89443 -0.44721
vn -1 -0 -0
vn 1 0 -0
vt 0.03125 0.5625
vt 0.03125 0.59375
vt 0 0.59375
vt 0 0.5625
vt 0.03125 0.57812
vt 0 0.57812
usemtl mat0
f 25/15/7 26/16/7 27/17/7
f 25/15/7 27/17/7 28/18/7
f 29/19/8 30/16/8 31/17/8
f 29/19/8 31/17/8 32/20/8
f 33/18/9 34/15/9 35/16/9
f 33/18/9 35/16/9 36/17/9
f 37/16/10 27/17/10 38/19/10
f 39/19/11 40/20/11 33/18/11
# Vertices: 16, normals: 5, texture coordinates: 6, faces: 8

o obj3
v -0.3125 0.0625 -0.3125
v -0.1875 0.0625 -0.3125
v -0.1875 0.0625 -0.4375
v -0.3125 0.0625 -0.4375
v -0.3125 0.0625 -0.4375
v -0.1875 0.0625 -0.4375
v -0.1875 0 -0.4375
v -0.3125 0 -0.4375
v -0.3125 0.0625 -0.3125
v -0.3125 0 -0.4375
v -0.1875 0 -0.4375
v -0.1875 0.0625 -0.3125
v -0.3125 0.0625 -0.3125
v -0.3125 0 -0.4375
v -0.1875 0.0625 -0.4375
v -0.1875 0.0625 -0.3125
vn 0 1 0
vn 0 0 -1
vn 0 -0.89443 0.44721
vn -1 0 -0
vn 1 0 -0
vt 0 0.5625
vt 0.03125 0.5625
vt 0.03125 0.59375
vt 0 0.59375
vt 0 0.57812
vt 0.03125 0.57812
usemtl mat0
f 41/21/12 42/22/12 43/23/12
f 41/21/12 43/23/12 44/24/12
f 45/23/13 46/24/13 47/25/13
f 45/23/13 47/25/13 48/26/13
f 49/24/14 50/21/14 51/22/14
f 49/24/14 51/22/14 52/23/14
f 53/23/15 44/24/15 54/25/15
f 55/26/16 56/25/16 51/22/16
# Vertices: 16, normals: 5, texture coordinates: 6, faces: 8

o obj4
v 0.25 0.0625 -0.3125
v 0.375 0.0625 -0.3125
v 0.375 0.0625 -0.4375
v 0.25 0.0625 -0.4375
v 0.25 0.0625 -0.4375
v 0.375 0.0625 -0.4375
v 0.375 0 -0.4375
v 0.25 0 -0.4375
v 0.25 0.0625 -0.3125
v 0.25 0 -0.4375
v 0.375 0 -0.4375
v 0.375 0.0625 -0.3125
v 0.25 0.0625 -0.3125
v 0.25 0 -0.4375
v 0.375 0.0625 -0.4375
v 0.375 0.0625 -0.3125
vn 0 1 0
vn 0 0 -1
vn 0 -0.89443 0.44721
vn -1 0 -0
vn 1 0 -0
vt 0 0.5625
vt 0.03125 0.5625
vt 0.03125 0.59375
vt 0 0.59375
vt 0 0.57812
vt 0.03125 0.57812
usemtl mat0
f 57/27/17 58/28/17 59/29/17
f 57/27/17 59/29/17 60/30/17
f 61/29/18 62/30/18 63/31/18
f 61/29/18 63/31/18 64/32/18
f 65/30/19 66/27/19 67/28/19
f 65/30/19 67/28/19 68/29/19
f 69/29/20 60/30/20 70/31/20
f 71/32/21 72/31/21 67/28/21
# Vertices: 16, normals: 5, texture coordinates: 6, faces: 8

o obj5
v 0.375 0.0625 0.4375
v 0.375 0.0625 0.3125
v 0.25 0.0625 0.3125
v 0.25 0.0625 0.4375
v 0.375 0 0.4375
v 0.375 0.0625 0.4375
v 0.25 0.0625 0.4375
v 0.25 0 0.4375
v 0.375 0 0.4375
v 0.25 0 0.4375
v 0.25 0.0625 0.3125
v 0.375 0.0625 0.3125
v 0.25 0.0625 0.4375
v 0.25 0 0.4375
v 0.375 0.0625 0.3125
v 0.375 0.0625 0.4375
vn 0 1 0
vn 0 0 1
vn 0 -0.89443 -0.44721
vn -1 -0 -0
vn 1 0 -0
vt 0.03125 0.5625
vt 0.03125 0.59375
vt 0 0.59375
vt 0 0.5625
vt 0.03125 0.57812
vt 0 0.57812
usemtl mat0
f 73/33/22 74/34/22 75/35/22
f 73/33/22 75/35/22 76/36/22
f 77/37/23 78/34/23 79/35/23
f 77/37/23 79/35/23 80/38/23
f 81/36/24 82/33/24 83/34/24
f 81/36/24 83/34/24 84/35/24
f 85/34/25 75/35/25 86/37/25
f 87/37/26 88/38/26 81/36/26
# Vertices: 16, normals: 5, texture coordinates: 6, faces: 8

