# File generated by ImageToStl.com - Free Image and 3D model conversion tools

mtllib low-poly-air-conditioner.mtl

o obj1
v 0.5 0.625 0.3125
v 0.5 0 0.3125
v 0.5 0.625 -0.25
v 0.5 0 -0.25
v -0.4375 0.625 -0.25
v -0.4375 0 -0.25
v -0.4375 0.625 0.3125
v -0.4375 0 0.3125
v -0.4375 0.625 -0.25
v -0.4375 0.625 0.3125
v 0.5 0.625 -0.25
v 0.5 0.625 0.3125
v -0.4375 0 0.3125
v -0.4375 0 -0.25
v 0.5 0 0.3125
v 0.5 0 -0.25
v -0.4375 0.625 0.3125
v -0.4375 0 0.3125
v 0.5 0.625 0.3125
v 0.5 0 0.3125
v 0.5 0.625 -0.25
v 0.5 0 -0.25
v -0.4375 0.625 -0.25
v -0.4375 0 -0.25
vn 1 0 0
vn -1 0 0
vn 0 1 0
vn 0 -1 0
vn 0 0 1
vn 0 0 -1
vt 0.46875 0.5625
vt 0.46875 0.875
vt 0.75 0.5625
vt 0.75 0.875
vt 0 0.625
vt 0 0.9375
vt 0.28125 0.625
vt 0.28125 0.9375
vt 0.9375 0.28125
vt 0.9375 0
vt 0.46875 0.28125
vt 0.46875 0
vt 0.9375 0.5625
vt 0 0.3125
vt 0.46875 0.3125
vt 0.46875 0.625
vt 0 0
usemtl mat0
f 1/1/1 2/2/1 3/3/1
f 2/2/1 4/4/1 3/3/1
f 5/5/2 6/6/2 7/7/2
f 6/6/2 8/8/2 7/7/2
f 9/9/3 10/10/3 11/11/3
f 10/10/3 12/12/3 11/11/3
f 13/9/4 14/13/4 15/11/4
f 14/13/4 16/1/4 15/11/4
f 17/14/5 18/5/5 19/15/5
f 18/5/5 20/16/5 19/15/5
f 21/17/6 22/14/6 23/12/6
f 22/14/6 24/15/6 23/12/6
# Vertices: 24, normals: 6, texture coordinates: 17, faces: 12

o obj2
v 0 0.5 0.375
v 0 0.3125 0.375
v 0 0.5 0.3125
v 0 0.3125 0.3125
v -0.25 0.5 0.3125
v -0.25 0.3125 0.3125
v -0.25 0.5 0.375
v -0.25 0.3125 0.375
v -0.25 0.5 0.3125
v -0.25 0.5 0.375
v 0 0.5 0.3125
v 0 0.5 0.375
v -0.25 0.3125 0.375
v -0.25 0.3125 0.3125
v 0 0.3125 0.375
v 0 0.3125 0.3125
v -0.25 0.5 0.375
v -0.25 0.3125 0.375
v 0 0.5 0.375
v 0 0.3125 0.375
v 0 0.5 0.3125
v 0 0.3125 0.3125
v -0.25 0.5 0.3125
v -0.25 0.3125 0.3125
vn 1 0 0
vn -1 0 0
vn 0 1 0
vn 0 -1 0
vn 0 0 1
vn 0 0 -1
vt 0.25 0.125
vt 0.25 0.3125
vt 0.3125 0.125
vt 0.3125 0.3125
vt 0.375 0.125
vt 0.375 0.3125
vt 0.5 0.0625
vt 0.5 0
vt 0.25 0.0625
vt 0.25 0
vt 0.5 0.125
vt 0 0.1875
vt 0 0.375
vt 0.25 0.1875
vt 0.25 0.375
vt 0 0
usemtl mat1
f 25/18/7 26/19/7 27/20/7
f 26/19/7 28/21/7 27/20/7
f 29/20/8 30/21/8 31/22/8
f 30/21/8 32/23/8 31/22/8
f 33/24/9 34/25/9 35/26/9
f 34/25/9 36/27/9 35/26/9
f 37/24/10 38/28/10 39/26/10
f 38/28/10 40/18/10 39/26/10
f 41/29/11 42/30/11 43/31/11
f 42/30/11 44/32/11 43/31/11
f 45/33/12 46/29/12 47/27/12
f 46/29/12 48/31/12 47/27/12
# Vertices: 24, normals: 6, texture coordinates: 16, faces: 12

o obj3
v 0.5 0.5625 -0.25
v 0.5 0.0625 -0.25
v 0.5 0.5625 -0.3125
v 0.5 0.0625 -0.3125
v -0.0625 0.5625 -0.3125
v -0.0625 0.0625 -0.3125
v -0.0625 0.5625 -0.25
v -0.0625 0.0625 -0.25
v -0.0625 0.5625 -0.3125
v -0.0625 0.5625 -0.25
v 0.5 0.5625 -0.3125
v 0.5 0.5625 -0.25
v -0.0625 0.0625 -0.25
v -0.0625 0.0625 -0.3125
v 0.5 0.0625 -0.25
v 0.5 0.0625 -0.3125
v -0.0625 0.5625 -0.25
v -0.0625 0.0625 -0.25
v 0.5 0.5625 -0.25
v 0.5 0.0625 -0.25
v 0.5 0.5625 -0.3125
v 0.5 0.0625 -0.3125
v -0.0625 0.5625 -0.3125
v -0.0625 0.0625 -0.3125
vn 1 0 0
vn -1 0 0
vn 0 1 0
vn 0 -1 0
vn 0 0 1
vn 0 0 -1
vt 0 0.3125
vt 0 0.625
vt 0.03125 0.3125
vt 0.03125 0.625
vt 0.0625 0.3125
vt 0.0625 0.625
vt 0.34375 0.34375
vt 0.34375 0.3125
vt 0.0625 0.34375
vt 0.34375 0.375
vt 0.0625 0.375
vt 0.28125 0
vt 0.28125 0.3125
vt 0.5625 0
vt 0.5625 0.3125
vt 0 0
usemtl mat2
f 49/34/13 50/35/13 51/36/13
f 50/35/13 52/37/13 51/36/13
f 53/36/14 54/37/14 55/38/14
f 54/37/14 56/39/14 55/38/14
f 57/40/15 58/41/15 59/42/15
f 58/41/15 60/38/15 59/42/15
f 61/40/16 62/43/16 63/42/16
f 62/43/16 64/44/16 63/42/16
f 65/45/17 66/46/17 67/47/17
f 66/46/17 68/48/17 67/47/17
f 69/49/18 70/34/18 71/45/18
f 70/34/18 72/46/18 71/45/18
# Vertices: 24, normals: 6, texture coordinates: 16, faces: 12

o obj4
v 0.375 0.5 0.375
v 0.375 0.3125 0.375
v 0.375 0.5 0.3125
v 0.375 0.3125 0.3125
v 0.125 0.5 0.3125
v 0.125 0.3125 0.3125
v 0.125 0.5 0.375
v 0.125 0.3125 0.375
v 0.125 0.5 0.3125
v 0.125 0.5 0.375
v 0.375 0.5 0.3125
v 0.375 0.5 0.375
v 0.125 0.3125 0.375
v 0.125 0.3125 0.3125
v 0.375 0.3125 0.375
v 0.375 0.3125 0.3125
v 0.125 0.5 0.375
v 0.125 0.3125 0.375
v 0.375 0.5 0.375
v 0.375 0.3125 0.375
v 0.375 0.5 0.3125
v 0.375 0.3125 0.3125
v 0.125 0.5 0.3125
v 0.125 0.3125 0.3125
vn 1 0 0
vn -1 0 0
vn 0 1 0
vn 0 -1 0
vn 0 0 1
vn 0 0 -1
vt 0.25 0.125
vt 0.25 0.3125
vt 0.3125 0.125
vt 0.3125 0.3125
vt 0.375 0.125
vt 0.375 0.3125
vt 0.5 0.0625
vt 0.5 0
vt 0.25 0.0625
vt 0.25 0
vt 0.5 0.125
vt 0 0.1875
vt 0 0.375
vt 0.25 0.1875
vt 0.25 0.375
vt 0 0
usemtl mat3
f 73/50/19 74/51/19 75/52/19
f 74/51/19 76/53/19 75/52/19
f 77/52/20 78/53/20 79/54/20
f 78/53/20 80/55/20 79/54/20
f 81/56/21 82/57/21 83/58/21
f 82/57/21 84/59/21 83/58/21
f 85/56/22 86/60/22 87/58/22
f 86/60/22 88/50/22 87/58/22
f 89/61/23 90/62/23 91/63/23
f 90/62/23 92/64/23 91/63/23
f 93/65/24 94/61/24 95/59/24
f 94/61/24 96/63/24 95/59/24
# Vertices: 24, normals: 6, texture coordinates: 16, faces: 12

o obj5
v 0.4375 0.53750002 -0.25
v 0.4375 0.09375 -0.25
v 0.4375 0.53750002 -0.25624999
v 0.4375 0.09375 -0.25624999
v 0 0.53750002 -0.25624999
v 0 0.09375 -0.25624999
v 0 0.53750002 -0.25
v 0 0.09375 -0.25
v 0 0.53750002 -0.25624999
v 0 0.53750002 -0.25
v 0.4375 0.53750002 -0.25624999
v 0.4375 0.53750002 -0.25
v 0 0.09375 -0.25
v 0 0.09375 -0.25624999
v 0.4375 0.09375 -0.25
v 0.4375 0.09375 -0.25624999
v 0 0.53750002 -0.25
v 0 0.09375 -0.25
v 0.4375 0.53750002 -0.25
v 0.4375 0.09375 -0.25
v 0.4375 0.53750002 -0.25624999
v 0.4375 0.09375 -0.25624999
v 0 0.53750002 -0.25624999
v 0 0.09375 -0.25624999
vn 1 0 0
vn -1 0 0
vn 0 1 0
vn 0 -1 0
vn 0 0 1
vn 0 0 -1
vt 0 0.5
vt 0 1
vt 0.0625 0.5
vt 0.0625 1
vt 0.125 0.5
vt 0.125 1
vt 0.5625 0.5625
vt 0.5625 0.5
vt 0.125 0.5625
vt 0.5625 0.625
vt 0.125 0.625
vt 0.4375 0
vt 0.4375 0.5
vt 0.875 0
vt 0.875 0.5
vt 0 0
vt 0 0.4375
vt 0.4375 0.4375
usemtl mat4
f 97/66/25 98/67/25 99/68/25
f 98/67/25 100/69/25 99/68/25
f 101/68/26 102/69/26 103/70/26
f 102/69/26 104/71/26 103/70/26
f 105/72/27 106/73/27 107/74/27
f 106/73/27 108/70/27 107/74/27
f 109/72/28 110/75/28 111/74/28
f 110/75/28 112/76/28 111/74/28
f 113/77/29 114/78/29 115/79/29
f 114/78/29 116/80/29 115/79/29
f 117/81/30 118/82/30 119/77/30
f 118/82/30 120/83/30 119/77/30
# Vertices: 24, normals: 6, texture coordinates: 18, faces: 12

