# File generated by ImageToStl.com - Free Image and 3D model conversion tools

mtllib office-table-1.mtl

o obj1
v 1.125 1.4375 1.1875
v 1.125 1.375 1.1875
v 1.125 1.4375 -0.375
v 1.125 1.375 -0.375
v -1.5 1.4375 -0.375
v -1.5 1.375 -0.375
v -1.5 1.4375 1.1875
v -1.5 1.375 1.1875
v -1.5 1.4375 -0.375
v -1.5 1.4375 1.1875
v 1.125 1.4375 -0.375
v 1.125 1.4375 1.1875
v -1.5 1.375 1.1875
v -1.5 1.375 -0.375
v 1.125 1.375 1.1875
v 1.125 1.375 -0.375
v -1.5 1.4375 1.1875
v -1.5 1.375 1.1875
v 1.125 1.4375 1.1875
v 1.125 1.375 1.1875
v 1.125 1.4375 -0.375
v 1.125 1.375 -0.375
v -1.5 1.4375 -0.375
v -1.5 1.375 -0.375
vn 1 0 0
vn -1 0 0
vn 0 1 0
vn 0 -1 0
vn 0 0 1
vn 0 0 -1
vt 0.57812 0.33594
vt 0.57812 0.34375
vt 0.77344 0.33594
vt 0.77344 0.34375
vt 0.57812 0.35156
vt 0.77344 0.35156
vt 0.32812 0.19531
vt 0.32812 0
vt 0 0.19531
vt 0 0
vt 0.32812 0.39062
vt 0 0.39062
vt 0.57812 0.32812
vt 0.90625 0.32812
vt 0.90625 0.33594
vt 0.57812 0.32031
vt 0.90625 0.32031
usemtl mat0
f 1/1/1 2/2/1 3/3/1
f 2/2/1 4/4/1 3/3/1
f 5/2/2 6/5/2 7/4/2
f 6/5/2 8/6/2 7/4/2
f 9/7/3 10/8/3 11/9/3
f 10/8/3 12/10/3 11/9/3
f 13/7/4 14/11/4 15/9/4
f 14/11/4 16/12/4 15/9/4
f 17/13/5 18/1/5 19/14/5
f 18/1/5 20/15/5 19/14/5
f 21/16/6 22/13/6 23/17/6
f 22/13/6 24/14/6 23/17/6
# Vertices: 24, normals: 6, texture coordinates: 17, faces: 12

o obj2
v 1.0625 1.375 1.125
v 1.0625 0 1.125
v 1.0625 1.375 -0.1875
v 1.0625 0 -0.1875
v 1 1.375 -0.1875
v 1 0 -0.1875
v 1 1.375 1.125
v 1 0 1.125
v 1 1.375 -0.1875
v 1 1.375 1.125
v 1.0625 1.375 -0.1875
v 1.0625 1.375 1.125
v 1 0 1.125
v 1 0 -0.1875
v 1.0625 0 1.125
v 1.0625 0 -0.1875
v 1 1.375 1.125
v 1 0 1.125
v 1.0625 1.375 1.125
v 1.0625 0 1.125
v 1.0625 1.375 -0.1875
v 1.0625 0 -0.1875
v 1 1.375 -0.1875
v 1 0 -0.1875
vn 1 0 0
vn -1 0 0
vn 0 1 0
vn 0 -1 0
vn 0 0 1
vn 0 0 -1
vt 0.32812 0
vt 0.32812 0.17188
vt 0.49219 0
vt 0.49219 0.17188
vt 0.32812 0.34375
vt 0.49219 0.34375
vt 0.46875 0.67969
vt 0.46875 0.51562
vt 0.46094 0.67969
vt 0.46094 0.51562
vt 0.47656 0.51562
vt 0.47656 0.67969
vt 0.42188 0.51562
vt 0.42188 0.6875
vt 0.42969 0.51562
vt 0.42969 0.6875
vt 0.41406 0.51562
vt 0.41406 0.6875
usemtl mat0
f 25/18/7 26/19/7 27/20/7
f 26/19/7 28/21/7 27/20/7
f 29/19/8 30/22/8 31/21/8
f 30/22/8 32/23/8 31/21/8
f 33/24/9 34/25/9 35/26/9
f 34/25/9 36/27/9 35/26/9
f 37/28/10 38/29/10 39/25/10
f 38/29/10 40/24/10 39/25/10
f 41/30/11 42/31/11 43/32/11
f 42/31/11 44/33/11 43/32/11
f 45/34/12 46/35/12 47/30/12
f 46/35/12 48/31/12 47/30/12
# Vertices: 24, normals: 6, texture coordinates: 18, faces: 12

o obj3
v 0.3125 1.375 1.125
v 0.3125 0 1.125
v 0.3125 1.375 -0.1875
v 0.3125 0 -0.1875
v 0.25 1.375 -0.1875
v 0.25 0 -0.1875
v 0.25 1.375 1.125
v 0.25 0 1.125
v 0.25 1.375 -0.1875
v 0.25 1.375 1.125
v 0.3125 1.375 -0.1875
v 0.3125 1.375 1.125
v 0.25 0 1.125
v 0.25 0 -0.1875
v 0.3125 0 1.125
v 0.3125 0 -0.1875
v 0.25 1.375 1.125
v 0.25 0 1.125
v 0.3125 1.375 1.125
v 0.3125 0 1.125
v 0.3125 1.375 -0.1875
v 0.3125 0 -0.1875
v 0.25 1.375 -0.1875
v 0.25 0 -0.1875
vn 1 0 0
vn -1 0 0
vn 0 1 0
vn 0 -1 0
vn 0 0 1
vn 0 0 -1
vt 0.32812 0.34375
vt 0.32812 0.51562
vt 0.49219 0.34375
vt 0.49219 0.51562
vt 0 0.39062
vt 0 0.5625
vt 0.16406 0.39062
vt 0.16406 0.5625
vt 0.48438 0.67969
vt 0.48438 0.51562
vt 0.47656 0.67969
vt 0.47656 0.51562
vt 0.49219 0.67969
vt 0.4375 0.51562
vt 0.4375 0.6875
vt 0.44531 0.51562
vt 0.44531 0.6875
vt 0.42969 0.51562
vt 0.42969 0.6875
usemtl mat0
f 49/36/13 50/37/13 51/38/13
f 50/37/13 52/39/13 51/38/13
f 53/40/14 54/41/14 55/42/14
f 54/41/14 56/43/14 55/42/14
f 57/44/15 58/45/15 59/46/15
f 58/45/15 60/47/15 59/46/15
f 61/39/16 62/48/16 63/45/16
f 62/48/16 64/44/16 63/45/16
f 65/49/17 66/50/17 67/51/17
f 66/50/17 68/52/17 67/51/17
f 69/53/18 70/54/18 71/49/18
f 70/54/18 72/50/18 71/49/18
# Vertices: 24, normals: 6, texture coordinates: 19, faces: 12

o obj4
v 1 1 1.0625
v 1 0.9375 1.0625
v 1 1 -0.1875
v 1 0.9375 -0.1875
v 0.3125 1 -0.1875
v 0.3125 0.9375 -0.1875
v 0.3125 1 1.0625
v 0.3125 0.9375 1.0625
v 0.3125 1 -0.1875
v 0.3125 1 1.0625
v 1 1 -0.1875
v 1 1 1.0625
v 0.3125 0.9375 1.0625
v 0.3125 0.9375 -0.1875
v 1 0.9375 1.0625
v 1 0.9375 -0.1875
v 0.3125 1 1.0625
v 0.3125 0.9375 1.0625
v 1 1 1.0625
v 1 0.9375 1.0625
v 1 1 -0.1875
v 1 0.9375 -0.1875
v 0.3125 1 -0.1875
v 0.3125 0.9375 -0.1875
vn 1 0 0
vn -1 0 0
vn 0 1 0
vn 0 -1 0
vn 0 0 1
vn 0 0 -1
vt 0.57812 0.35156
vt 0.57812 0.35938
vt 0.73438 0.35156
vt 0.73438 0.35938
vt 0.57812 0.36719
vt 0.73438 0.36719
vt 0.57812 0.32812
vt 0.57812 0.17188
vt 0.49219 0.32812
vt 0.49219 0.17188
vt 0.57812 0.48438
vt 0.49219 0.48438
vt 0.57812 0.40625
vt 0.57812 0.41406
vt 0.66406 0.40625
vt 0.66406 0.41406
vt 0.57812 0.39844
vt 0.66406 0.39844
usemtl mat0
f 73/55/19 74/56/19 75/57/19
f 74/56/19 76/58/19 75/57/19
f 77/56/20 78/59/20 79/58/20
f 78/59/20 80/60/20 79/58/20
f 81/61/21 82/62/21 83/63/21
f 82/62/21 84/64/21 83/63/21
f 85/61/22 86/65/22 87/63/22
f 86/65/22 88/66/22 87/63/22
f 89/67/23 90/68/23 91/69/23
f 90/68/23 92/70/23 91/69/23
f 93/71/24 94/67/24 95/72/24
f 94/67/24 96/69/24 95/72/24
# Vertices: 24, normals: 6, texture coordinates: 18, faces: 12

o obj5
v 1 1.375 1.125
v 1 0.1875 1.125
v 1 1.375 1.0625
v 1 0.1875 1.0625
v 0.3125 1.375 1.0625
v 0.3125 0.1875 1.0625
v 0.3125 1.375 1.125
v 0.3125 0.1875 1.125
v 0.3125 1.375 1.0625
v 0.3125 1.375 1.125
v 1 1.375 1.0625
v 1 1.375 1.125
v 0.3125 0.1875 1.125
v 0.3125 0.1875 1.0625
v 1 0.1875 1.125
v 1 0.1875 1.0625
v 0.3125 1.375 1.125
v 0.3125 0.1875 1.125
v 1 1.375 1.125
v 1 0.1875 1.125
v 1 1.375 1.0625
v 1 0.1875 1.0625
v 0.3125 1.375 1.0625
v 0.3125 0.1875 1.0625
vn 1 0 0
vn -1 0 0
vn 0 1 0
vn 0 -1 0
vn 0 0 1
vn 0 0 -1
vt 0.27344 0.5625
vt 0.27344 0.71094
vt 0.28125 0.5625
vt 0.28125 0.71094
vt 0.28906 0.5625
vt 0.28906 0.71094
vt 0.66406 0.42188
vt 0.66406 0.41406
vt 0.57812 0.42188
vt 0.57812 0.41406
vt 0.66406 0.42969
vt 0.57812 0.42969
vt 0.57812 0.17188
vt 0.57812 0.32031
vt 0.66406 0.17188
vt 0.66406 0.32031
vt 0.17188 0.5625
vt 0.17188 0.71094
vt 0.25781 0.5625
vt 0.25781 0.71094
usemtl mat0
f 97/73/25 98/74/25 99/75/25
f 98/74/25 100/76/25 99/75/25
f 101/75/26 102/76/26 103/77/26
f 102/76/26 104/78/26 103/77/26
f 105/79/27 106/80/27 107/81/27
f 106/80/27 108/82/27 107/81/27
f 109/79/28 110/83/28 111/81/28
f 110/83/28 112/84/28 111/81/28
f 113/85/29 114/86/29 115/87/29
f 114/86/29 116/88/29 115/87/29
f 117/89/30 118/90/30 119/91/30
f 118/90/30 120/92/30 119/91/30
# Vertices: 24, normals: 6, texture coordinates: 20, faces: 12

o obj6
v 1 0.625 1.0625
v 1 0.5625 1.0625
v 1 0.625 -0.1875
v 1 0.5625 -0.1875
v 0.3125 0.625 -0.1875
v 0.3125 0.5625 -0.1875
v 0.3125 0.625 1.0625
v 0.3125 0.5625 1.0625
v 0.3125 0.625 -0.1875
v 0.3125 0.625 1.0625
v 1 0.625 -0.1875
v 1 0.625 1.0625
v 0.3125 0.5625 1.0625
v 0.3125 0.5625 -0.1875
v 1 0.5625 1.0625
v 1 0.5625 -0.1875
v 0.3125 0.625 1.0625
v 0.3125 0.5625 1.0625
v 1 0.625 1.0625
v 1 0.5625 1.0625
v 1 0.625 -0.1875
v 1 0.5625 -0.1875
v 0.3125 0.625 -0.1875
v 0.3125 0.5625 -0.1875
vn 1 0 0
vn -1 0 0
vn 0 1 0
vn 0 -1 0
vn 0 0 1
vn 0 0 -1
vt 0.57812 0.36719
vt 0.57812 0.375
vt 0.73438 0.36719
vt 0.73438 0.375
vt 0.57812 0.38281
vt 0.73438 0.38281
vt 0.57812 0.64062
vt 0.57812 0.48438
vt 0.49219 0.64062
vt 0.49219 0.48438
vt 0.41406 0.51562
vt 0.41406 0.67188
vt 0.32812 0.51562
vt 0.32812 0.67188
vt 0.57812 0.4375
vt 0.57812 0.44531
vt 0.66406 0.4375
vt 0.66406 0.44531
vt 0.57812 0.42969
vt 0.66406 0.42969
usemtl mat0
f 121/93/31 122/94/31 123/95/31
f 122/94/31 124/96/31 123/95/31
f 125/94/32 126/97/32 127/96/32
f 126/97/32 128/98/32 127/96/32
f 129/99/33 130/100/33 131/101/33
f 130/100/33 132/102/33 131/101/33
f 133/103/34 134/104/34 135/105/34
f 134/104/34 136/106/34 135/105/34
f 137/107/35 138/108/35 139/109/35
f 138/108/35 140/110/35 139/109/35
f 141/111/36 142/107/36 143/112/36
f 142/107/36 144/109/36 143/112/36
# Vertices: 24, normals: 6, texture coordinates: 20, faces: 12

o obj7
v 1 0.25 1.0625
v 1 0.1875 1.0625
v 1 0.25 -0.1875
v 1 0.1875 -0.1875
v 0.3125 0.25 -0.1875
v 0.3125 0.1875 -0.1875
v 0.3125 0.25 1.0625
v 0.3125 0.1875 1.0625
v 0.3125 0.25 -0.1875
v 0.3125 0.25 1.0625
v 1 0.25 -0.1875
v 1 0.25 1.0625
v 0.3125 0.1875 1.0625
v 0.3125 0.1875 -0.1875
v 1 0.1875 1.0625
v 1 0.1875 -0.1875
v 0.3125 0.25 1.0625
v 0.3125 0.1875 1.0625
v 1 0.25 1.0625
v 1 0.1875 1.0625
v 1 0.25 -0.1875
v 1 0.1875 -0.1875
v 0.3125 0.25 -0.1875
v 0.3125 0.1875 -0.1875
vn 1 0 0
vn -1 0 0
vn 0 1 0
vn 0 -1 0
vn 0 0 1
vn 0 0 -1
vt 0.57812 0.38281
vt 0.57812 0.39062
vt 0.73438 0.38281
vt 0.73438 0.39062
vt 0.57812 0.39844
vt 0.73438 0.39844
vt 0.08594 0.71875
vt 0.08594 0.5625
vt 0 0.71875
vt 0 0.5625
vt 0.17188 0.5625
vt 0.17188 0.71875
vt 0.57812 0.45312
vt 0.57812 0.46094
vt 0.66406 0.45312
vt 0.66406 0.46094
vt 0.57812 0.44531
vt 0.66406 0.44531
usemtl mat0
f 145/113/37 146/114/37 147/115/37
f 146/114/37 148/116/37 147/115/37
f 149/114/38 150/117/38 151/116/38
f 150/117/38 152/118/38 151/116/38
f 153/119/39 154/120/39 155/121/39
f 154/120/39 156/122/39 155/121/39
f 157/123/40 158/124/40 159/120/40
f 158/124/40 160/119/40 159/120/40
f 161/125/41 162/126/41 163/127/41
f 162/126/41 164/128/41 163/127/41
f 165/129/42 166/125/42 167/130/42
f 166/125/42 168/127/42 167/130/42
# Vertices: 24, normals: 6, texture coordinates: 18, faces: 12

o obj8
v -1.375 1.375 1.125
v -1.375 0 1.125
v -1.375 1.375 -0.1875
v -1.375 0 -0.1875
v -1.4375 1.375 -0.1875
v -1.4375 0 -0.1875
v -1.4375 1.375 1.125
v -1.4375 0 1.125
v -1.4375 1.375 -0.1875
v -1.4375 1.375 1.125
v -1.375 1.375 -0.1875
v -1.375 1.375 1.125
v -1.4375 0 1.125
v -1.4375 0 -0.1875
v -1.375 0 1.125
v -1.375 0 -0.1875
v -1.4375 1.375 1.125
v -1.4375 0 1.125
v -1.375 1.375 1.125
v -1.375 0 1.125
v -1.375 1.375 -0.1875
v -1.375 0 -0.1875
v -1.4375 1.375 -0.1875
v -1.4375 0 -0.1875
vn 1 0 0
vn -1 0 0
vn 0 1 0
vn 0 -1 0
vn 0 0 1
vn 0 0 -1
vt 0.16406 0.39062
vt 0.16406 0.5625
vt 0.32812 0.39062
vt 0.32812 0.5625
vt 0.49219 0
vt 0.49219 0.17188
vt 0.65625 0
vt 0.65625 0.17188
vt 0.26562 0.72656
vt 0.26562 0.5625
vt 0.25781 0.72656
vt 0.25781 0.5625
vt 0.27344 0.5625
vt 0.27344 0.72656
vt 0.45312 0.51562
vt 0.45312 0.6875
vt 0.46094 0.51562
vt 0.46094 0.6875
vt 0.44531 0.51562
vt 0.44531 0.6875
usemtl mat0
f 169/131/43 170/132/43 171/133/43
f 170/132/43 172/134/43 171/133/43
f 173/135/44 174/136/44 175/137/44
f 174/136/44 176/138/44 175/137/44
f 177/139/45 178/140/45 179/141/45
f 178/140/45 180/142/45 179/141/45
f 181/143/46 182/144/46 183/140/46
f 182/144/46 184/139/46 183/140/46
f 185/145/47 186/146/47 187/147/47
f 186/146/47 188/148/47 187/147/47
f 189/149/48 190/150/48 191/145/48
f 190/150/48 192/146/48 191/145/48
# Vertices: 24, normals: 6, texture coordinates: 20, faces: 12

