# File generated by ImageToStl.com - Free Image and 3D model conversion tools

mtllib interior-wooden-crate-minecraft.mtl

o obj1
v 16 16 16
v 16 0 16
v 16 16 13
v 16 0 13
vn 1 0 0
vt 0.125 0
vt 0.125 0.625
vt 0.25 0
vt 0.25 0.625
usemtl mat0
f 1/1/1 2/2/1 3/3/1
f 2/2/1 4/4/1 3/3/1
# Vertices: 4, normals: 1, texture coordinates: 4, faces: 2

o obj2
v 13 16 13
v 13 0 13
v 13 16 16
v 13 0 16
vn -1 0 0
vt 0.125 0
vt 0.125 0.625
vt 0.25 0
vt 0.25 0.625
usemtl mat0
f 5/5/2 6/6/2 7/7/2
f 6/6/2 8/8/2 7/7/2
# Vertices: 4, normals: 1, texture coordinates: 4, faces: 2

o obj3
v 13 16 13
v 13 16 16
v 16 16 13
v 16 16 16
vn 0 1 0
vt 0 0.21875
vt 0 0.34375
vt 0.125 0.21875
vt 0.125 0.34375
usemtl mat0
f 9/9/3 10/10/3 11/11/3
f 10/10/3 12/12/3 11/11/3
# Vertices: 4, normals: 1, texture coordinates: 4, faces: 2

o obj4
v 13 0 16
v 13 0 13
v 16 0 16
v 16 0 13
vn 0 -1 0
vt 0 0.3125
vt 0 0.4375
vt 0.125 0.3125
vt 0.125 0.4375
usemtl mat0
f 13/13/4 14/14/4 15/15/4
f 14/14/4 16/16/4 15/15/4
# Vertices: 4, normals: 1, texture coordinates: 4, faces: 2

o obj5
v 13 16 16
v 13 0 16
v 16 16 16
v 16 0 16
vn 0 0 1
vt 0 0
vt 0 0.625
vt 0.125 0
vt 0.125 0.625
usemtl mat0
f 17/17/5 18/18/5 19/19/5
f 18/18/5 20/20/5 19/19/5
# Vertices: 4, normals: 1, texture coordinates: 4, faces: 2

o obj6
v 16 16 13
v 16 0 13
v 13 16 13
v 13 0 13
vn 0 0 -1
vt 0 0
vt 0 0.625
vt 0.125 0
vt 0.125 0.625
usemtl mat0
f 21/21/6 22/22/6 23/23/6
f 22/22/6 24/24/6 23/23/6
# Vertices: 4, normals: 1, texture coordinates: 4, faces: 2

o obj7
v 15 15 15
v 15 1 15
v 15 15 1
v 15 1 1
vn 1 0 0
vt 0.375 0
vt 0.375 0.625
vt 1 0
vt 1 0.625
usemtl mat0
f 25/25/7 26/26/7 27/27/7
f 26/26/7 28/28/7 27/27/7
# Vertices: 4, normals: 1, texture coordinates: 4, faces: 2

o obj8
v 1 15 1
v 1 1 1
v 1 15 15
v 1 1 15
vn -1 0 0
vt 0.375 0
vt 0.375 0.625
vt 1 0
vt 1 0.625
usemtl mat0
f 29/29/8 30/30/8 31/31/8
f 30/30/8 32/32/8 31/31/8
# Vertices: 4, normals: 1, texture coordinates: 4, faces: 2

o obj9
v 1 15 1
v 1 15 15
v 15 15 1
v 15 15 15
vn 0 1 0
vt 0.375 0
vt 0.375 0.625
vt 1 0
vt 1 0.625
usemtl mat0
f 33/33/9 34/34/9 35/35/9
f 34/34/9 36/36/9 35/35/9
# Vertices: 4, normals: 1, texture coordinates: 4, faces: 2

o obj10
v 1 1 15
v 1 1 1
v 15 1 15
v 15 1 1
vn 0 -1 0
vt 0.375 0
vt 0.375 0.625
vt 1 0
vt 1 0.625
usemtl mat0
f 37/37/10 38/38/10 39/39/10
f 38/38/10 40/40/10 39/39/10
# Vertices: 4, normals: 1, texture coordinates: 4, faces: 2

o obj11
v 1 15 15
v 1 1 15
v 15 15 15
v 15 1 15
vn 0 0 1
vt 0.375 0
vt 0.375 0.625
vt 1 0
vt 1 0.625
usemtl mat0
f 41/41/11 42/42/11 43/43/11
f 42/42/11 44/44/11 43/43/11
# Vertices: 4, normals: 1, texture coordinates: 4, faces: 2

o obj12
v 15 15 1
v 15 1 1
v 1 15 1
v 1 1 1
vn 0 0 -1
vt 0.375 0
vt 0.375 0.625
vt 1 0
vt 1 0.625
usemtl mat0
f 45/45/12 46/46/12 47/47/12
f 46/46/12 48/48/12 47/47/12
# Vertices: 4, normals: 1, texture coordinates: 4, faces: 2

o obj13
v 3 3 13
v 3 0 13
v 3 3 3
v 3 0 3
vn 1 0 0
vt 0 0.875
vt 0 1
vt 0.4375 0.875
vt 0.4375 1
usemtl mat0
f 49/49/13 50/50/13 51/51/13
f 50/50/13 52/52/13 51/51/13
# Vertices: 4, normals: 1, texture coordinates: 4, faces: 2

o obj14
v 0 3 3
v 0 0 3
v 0 3 13
v 0 0 13
vn -1 0 0
vt 0 0.75
vt 0 0.875
vt 0.4375 0.75
vt 0.4375 0.875
usemtl mat0
f 53/53/14 54/54/14 55/55/14
f 54/54/14 56/56/14 55/55/14
# Vertices: 4, normals: 1, texture coordinates: 4, faces: 2

o obj15
v 0 3 3
v 0 3 13
v 3 3 3
v 3 3 13
vn 0 1 0
vt 0.25 0
vt 0.25 0.4375
vt 0.375 0
vt 0.375 0.4375
usemtl mat0
f 57/57/15 58/58/15 59/59/15
f 58/58/15 60/60/15 59/59/15
# Vertices: 4, normals: 1, texture coordinates: 4, faces: 2

o obj16
v 0 0 13
v 0 0 3
v 3 0 13
v 3 0 3
vn 0 -1 0
vt 0.25 0
vt 0.25 0.4375
vt 0.375 0
vt 0.375 0.4375
usemtl mat0
f 61/61/16 62/62/16 63/63/16
f 62/62/16 64/64/16 63/63/16
# Vertices: 4, normals: 1, texture coordinates: 4, faces: 2

o obj17
v 0 3 13
v 0 0 13
v 3 3 13
v 3 0 13
vn 0 0 1
vt 0 0.75
vt 0 0.875
vt 0.125 0.75
vt 0.125 0.875
usemtl mat0
f 65/65/17 66/66/17 67/67/17
f 66/66/17 68/68/17 67/67/17
# Vertices: 4, normals: 1, texture coordinates: 4, faces: 2

o obj18
v 3 3 3
v 3 0 3
v 0 3 3
v 0 0 3
vn 0 0 -1
vt 0 0.75
vt 0 0.875
vt 0.125 0.75
vt 0.125 0.875
usemtl mat0
f 69/69/18 70/70/18 71/71/18
f 70/70/18 72/72/18 71/71/18
# Vertices: 4, normals: 1, texture coordinates: 4, faces: 2

o obj19
v 16 3 13
v 16 0 13
v 16 3 3
v 16 0 3
vn 1 0 0
vt 0 0.875
vt 0 1
vt 0.4375 0.875
vt 0.4375 1
usemtl mat0
f 73/73/19 74/74/19 75/75/19
f 74/74/19 76/76/19 75/75/19
# Vertices: 4, normals: 1, texture coordinates: 4, faces: 2

o obj20
v 13 3 3
v 13 0 3
v 13 3 13
v 13 0 13
vn -1 0 0
vt 0 0.75
vt 0 0.875
vt 0.4375 0.75
vt 0.4375 0.875
usemtl mat0
f 77/77/20 78/78/20 79/79/20
f 78/78/20 80/80/20 79/79/20
# Vertices: 4, normals: 1, texture coordinates: 4, faces: 2

o obj21
v 13 3 3
v 13 3 13
v 16 3 3
v 16 3 13
vn 0 1 0
vt 0.25 0
vt 0.25 0.4375
vt 0.375 0
vt 0.375 0.4375
usemtl mat0
f 81/81/21 82/82/21 83/83/21
f 82/82/21 84/84/21 83/83/21
# Vertices: 4, normals: 1, texture coordinates: 4, faces: 2

o obj22
v 13 0 13
v 13 0 3
v 16 0 13
v 16 0 3
vn 0 -1 0
vt 0.25 0
vt 0.25 0.4375
vt 0.375 0
vt 0.375 0.4375
usemtl mat0
f 85/85/22 86/86/22 87/87/22
f 86/86/22 88/88/22 87/87/22
# Vertices: 4, normals: 1, texture coordinates: 4, faces: 2

o obj23
v 13 3 13
v 13 0 13
v 16 3 13
v 16 0 13
vn 0 0 1
vt 0 0.75
vt 0 0.875
vt 0.125 0.75
vt 0.125 0.875
usemtl mat0
f 89/89/23 90/90/23 91/91/23
f 90/90/23 92/92/23 91/91/23
# Vertices: 4, normals: 1, texture coordinates: 4, faces: 2

o obj24
v 16 3 3
v 16 0 3
v 13 3 3
v 13 0 3
vn 0 0 -1
vt 0 0.75
vt 0 0.875
vt 0.125 0.75
vt 0.125 0.875
usemtl mat0
f 93/93/24 94/94/24 95/95/24
f 94/94/24 96/96/24 95/95/24
# Vertices: 4, normals: 1, texture coordinates: 4, faces: 2

o obj25
v 16 16 13
v 16 13 13
v 16 16 3
v 16 13 3
vn 1 0 0
vt 0 0.75
vt 0 0.875
vt 0.4375 0.75
vt 0.4375 0.875
usemtl mat0
f 97/97/25 98/98/25 99/99/25
f 98/98/25 100/100/25 99/99/25
# Vertices: 4, normals: 1, texture coordinates: 4, faces: 2

o obj26
v 13 16 3
v 13 13 3
v 13 16 13
v 13 13 13
vn -1 0 0
vt 0 0.84375
vt 0 0.96875
vt 0.4375 0.84375
vt 0.4375 0.96875
usemtl mat0
f 101/101/26 102/102/26 103/103/26
f 102/102/26 104/104/26 103/103/26
# Vertices: 4, normals: 1, texture coordinates: 4, faces: 2

o obj27
v 13 16 3
v 13 16 13
v 16 16 3
v 16 16 13
vn 0 1 0
vt 0.21875 0
vt 0.21875 0.4375
vt 0.34375 0
vt 0.34375 0.4375
usemtl mat0
f 105/105/27 106/106/27 107/107/27
f 106/106/27 108/108/27 107/107/27
# Vertices: 4, normals: 1, texture coordinates: 4, faces: 2

o obj28
v 13 13 13
v 13 13 3
v 16 13 13
v 16 13 3
vn 0 -1 0
vt 0.25 0
vt 0.25 0.4375
vt 0.375 0
vt 0.375 0.4375
usemtl mat0
f 109/109/28 110/110/28 111/111/28
f 110/110/28 112/112/28 111/111/28
# Vertices: 4, normals: 1, texture coordinates: 4, faces: 2

o obj29
v 13 16 13
v 13 13 13
v 16 16 13
v 16 13 13
vn 0 0 1
vt 0 0.75
vt 0 0.875
vt 0.125 0.75
vt 0.125 0.875
usemtl mat0
f 113/113/29 114/114/29 115/115/29
f 114/114/29 116/116/29 115/115/29
# Vertices: 4, normals: 1, texture coordinates: 4, faces: 2

o obj30
v 16 16 3
v 16 13 3
v 13 16 3
v 13 13 3
vn 0 0 -1
vt 0 0.75
vt 0 0.875
vt 0.125 0.75
vt 0.125 0.875
usemtl mat0
f 117/117/30 118/118/30 119/119/30
f 118/118/30 120/120/30 119/119/30
# Vertices: 4, normals: 1, texture coordinates: 4, faces: 2

o obj31
v 3 16 13
v 3 13 13
v 3 16 3
v 3 13 3
vn 1 0 0
vt 0 0.875
vt 0 1
vt 0.4375 0.875
vt 0.4375 1
usemtl mat0
f 121/121/31 122/122/31 123/123/31
f 122/122/31 124/124/31 123/123/31
# Vertices: 4, normals: 1, texture coordinates: 4, faces: 2

o obj32
v 0 16 3
v 0 13 3
v 0 16 13
v 0 13 13
vn -1 0 0
vt 0 0.875
vt 0 1
vt 0.4375 0.875
vt 0.4375 1
usemtl mat0
f 125/125/32 126/126/32 127/127/32
f 126/126/32 128/128/32 127/127/32
# Vertices: 4, normals: 1, texture coordinates: 4, faces: 2

o obj33
v 0 16 3
v 0 16 13
v 3 16 3
v 3 16 13
vn 0 1 0
vt 0.25 0
vt 0.25 0.4375
vt 0.375 0
vt 0.375 0.4375
usemtl mat0
f 129/129/33 130/130/33 131/131/33
f 130/130/33 132/132/33 131/131/33
# Vertices: 4, normals: 1, texture coordinates: 4, faces: 2

o obj34
v 0 13 13
v 0 13 3
v 3 13 13
v 3 13 3
vn 0 -1 0
vt 0.25 0
vt 0.25 0.4375
vt 0.375 0
vt 0.375 0.4375
usemtl mat0
f 133/133/34 134/134/34 135/135/34
f 134/134/34 136/136/34 135/135/34
# Vertices: 4, normals: 1, texture coordinates: 4, faces: 2

o obj35
v 0 16 13
v 0 13 13
v 3 16 13
v 3 13 13
vn 0 0 1
vt 0 0.75
vt 0 0.875
vt 0.125 0.75
vt 0.125 0.875
usemtl mat0
f 137/137/35 138/138/35 139/139/35
f 138/138/35 140/140/35 139/139/35
# Vertices: 4, normals: 1, texture coordinates: 4, faces: 2

o obj36
v 3 16 3
v 3 13 3
v 0 16 3
v 0 13 3
vn 0 0 -1
vt 0 0.75
vt 0 0.875
vt 0.125 0.75
vt 0.125 0.875
usemtl mat0
f 141/141/36 142/142/36 143/143/36
f 142/142/36 144/144/36 143/143/36
# Vertices: 4, normals: 1, texture coordinates: 4, faces: 2

o obj37
v 3 16 16
v 3 0 16
v 3 16 13
v 3 0 13
vn 1 0 0
vt 0 0
vt 0 0.625
vt 0.125 0
vt 0.125 0.625
usemtl mat0
f 145/145/37 146/146/37 147/147/37
f 146/146/37 148/148/37 147/147/37
# Vertices: 4, normals: 1, texture coordinates: 4, faces: 2

o obj38
v 0 16 13
v 0 0 13
v 0 16 16
v 0 0 16
vn -1 0 0
vt 0 0
vt 0 0.625
vt 0.125 0
vt 0.125 0.625
usemtl mat0
f 149/149/38 150/150/38 151/151/38
f 150/150/38 152/152/38 151/151/38
# Vertices: 4, normals: 1, texture coordinates: 4, faces: 2

o obj39
v 0 16 13
v 0 16 16
v 3 16 13
v 3 16 16
vn 0 1 0
vt 0 0.3125
vt 0 0.4375
vt 0.125 0.3125
vt 0.125 0.4375
usemtl mat0
f 153/153/39 154/154/39 155/155/39
f 154/154/39 156/156/39 155/155/39
# Vertices: 4, normals: 1, texture coordinates: 4, faces: 2

o obj40
v 0 0 16
v 0 0 13
v 3 0 16
v 3 0 13
vn 0 -1 0
vt 0 0.21875
vt 0 0.34375
vt 0.125 0.21875
vt 0.125 0.34375
usemtl mat0
f 157/157/40 158/158/40 159/159/40
f 158/158/40 160/160/40 159/159/40
# Vertices: 4, normals: 1, texture coordinates: 4, faces: 2

o obj41
v 0 16 16
v 0 0 16
v 3 16 16
v 3 0 16
vn 0 0 1
vt 0.125 0
vt 0.125 0.625
vt 0.25 0
vt 0.25 0.625
usemtl mat0
f 161/161/41 162/162/41 163/163/41
f 162/162/41 164/164/41 163/163/41
# Vertices: 4, normals: 1, texture coordinates: 4, faces: 2

o obj42
v 3 16 13
v 3 0 13
v 0 16 13
v 0 0 13
vn 0 0 -1
vt 0.125 0
vt 0.125 0.625
vt 0.25 0
vt 0.25 0.625
usemtl mat0
f 165/165/42 166/166/42 167/167/42
f 166/166/42 168/168/42 167/167/42
# Vertices: 4, normals: 1, texture coordinates: 4, faces: 2

o obj43
v 13 16 16
v 13 13 16
v 13 16 13
v 13 13 13
vn 1 0 0
vt 0 0.75
vt 0 0.875
vt 0.125 0.75
vt 0.125 0.875
usemtl mat0
f 169/169/43 170/170/43 171/171/43
f 170/170/43 172/172/43 171/171/43
# Vertices: 4, normals: 1, texture coordinates: 4, faces: 2

o obj44
v 3 16 13
v 3 13 13
v 3 16 16
v 3 13 16
vn -1 0 0
vt 0 0.75
vt 0 0.875
vt 0.125 0.75
vt 0.125 0.875
usemtl mat0
f 173/173/44 174/174/44 175/175/44
f 174/174/44 176/176/44 175/175/44
# Vertices: 4, normals: 1, texture coordinates: 4, faces: 2

o obj45
v 3 16 13
v 3 16 16
v 13 16 13
v 13 16 16
vn 0 1 0
vt 0 0.75
vt 0 0.875
vt 0.4375 0.75
vt 0.4375 0.875
usemtl mat0
f 177/177/45 178/178/45 179/179/45
f 178/178/45 180/180/45 179/179/45
# Vertices: 4, normals: 1, texture coordinates: 4, faces: 2

o obj46
v 3 13 16
v 3 13 13
v 13 13 16
v 13 13 13
vn 0 -1 0
vt 0 0.75
vt 0 0.875
vt 0.4375 0.75
vt 0.4375 0.875
usemtl mat0
f 181/181/46 182/182/46 183/183/46
f 182/182/46 184/184/46 183/183/46
# Vertices: 4, normals: 1, texture coordinates: 4, faces: 2

o obj47
v 3 16 16
v 3 13 16
v 13 16 16
v 13 13 16
vn 0 0 1
vt 0 0.875
vt 0 1
vt 0.4375 0.875
vt 0.4375 1
usemtl mat0
f 185/185/47 186/186/47 187/187/47
f 186/186/47 188/188/47 187/187/47
# Vertices: 4, normals: 1, texture coordinates: 4, faces: 2

o obj48
v 13 16 13
v 13 13 13
v 3 16 13
v 3 13 13
vn 0 0 -1
vt 0 0.75
vt 0 0.875
vt 0.4375 0.75
vt 0.4375 0.875
usemtl mat0
f 189/189/48 190/190/48 191/191/48
f 190/190/48 192/192/48 191/191/48
# Vertices: 4, normals: 1, texture coordinates: 4, faces: 2

o obj49
v 13 3 16
v 13 0 16
v 13 3 13
v 13 0 13
vn 1 0 0
vt 0 0.75
vt 0 0.875
vt 0.125 0.75
vt 0.125 0.875
usemtl mat0
f 193/193/49 194/194/49 195/195/49
f 194/194/49 196/196/49 195/195/49
# Vertices: 4, normals: 1, texture coordinates: 4, faces: 2

o obj50
v 3 3 13
v 3 0 13
v 3 3 16
v 3 0 16
vn -1 0 0
vt 0 0.75
vt 0 0.875
vt 0.125 0.75
vt 0.125 0.875
usemtl mat0
f 197/197/50 198/198/50 199/199/50
f 198/198/50 200/200/50 199/199/50
# Vertices: 4, normals: 1, texture coordinates: 4, faces: 2

o obj51
v 3 3 13
v 3 3 16
v 13 3 13
v 13 3 16
vn 0 1 0
vt 0 0.75
vt 0 0.875
vt 0.4375 0.75
vt 0.4375 0.875
usemtl mat0
f 201/201/51 202/202/51 203/203/51
f 202/202/51 204/204/51 203/203/51
# Vertices: 4, normals: 1, texture coordinates: 4, faces: 2

o obj52
v 3 0 16
v 3 0 13
v 13 0 16
v 13 0 13
vn 0 -1 0
vt 0 0.75
vt 0 0.875
vt 0.4375 0.75
vt 0.4375 0.875
usemtl mat0
f 205/205/52 206/206/52 207/207/52
f 206/206/52 208/208/52 207/207/52
# Vertices: 4, normals: 1, texture coordinates: 4, faces: 2

o obj53
v 3 3 16
v 3 0 16
v 13 3 16
v 13 0 16
vn 0 0 1
vt 0 0.75
vt 0 0.875
vt 0.4375 0.75
vt 0.4375 0.875
usemtl mat0
f 209/209/53 210/210/53 211/211/53
f 210/210/53 212/212/53 211/211/53
# Vertices: 4, normals: 1, texture coordinates: 4, faces: 2

o obj54
v 13 3 13
v 13 0 13
v 3 3 13
v 3 0 13
vn 0 0 -1
vt 0 0.75
vt 0 0.875
vt 0.4375 0.75
vt 0.4375 0.875
usemtl mat0
f 213/213/54 214/214/54 215/215/54
f 214/214/54 216/216/54 215/215/54
# Vertices: 4, normals: 1, texture coordinates: 4, faces: 2

o obj55
v 13 3 3
v 13 0 3
v 13 3 0
v 13 0 0
vn 1 0 0
vt 0 0.75
vt 0 0.875
vt 0.125 0.75
vt 0.125 0.875
usemtl mat0
f 217/217/55 218/218/55 219/219/55
f 218/218/55 220/220/55 219/219/55
# Vertices: 4, normals: 1, texture coordinates: 4, faces: 2

o obj56
v 3 3 0
v 3 0 0
v 3 3 3
v 3 0 3
vn -1 0 0
vt 0 0.75
vt 0 0.875
vt 0.125 0.75
vt 0.125 0.875
usemtl mat0
f 221/221/56 222/222/56 223/223/56
f 222/222/56 224/224/56 223/223/56
# Vertices: 4, normals: 1, texture coordinates: 4, faces: 2

o obj57
v 3 3 0
v 3 3 3
v 13 3 0
v 13 3 3
vn 0 1 0
vt 0 0.75
vt 0 0.875
vt 0.4375 0.75
vt 0.4375 0.875
usemtl mat0
f 225/225/57 226/226/57 227/227/57
f 226/226/57 228/228/57 227/227/57
# Vertices: 4, normals: 1, texture coordinates: 4, faces: 2

o obj58
v 3 0 3
v 3 0 0
v 13 0 3
v 13 0 0
vn 0 -1 0
vt 0 0.75
vt 0 0.875
vt 0.4375 0.75
vt 0.4375 0.875
usemtl mat0
f 229/229/58 230/230/58 231/231/58
f 230/230/58 232/232/58 231/231/58
# Vertices: 4, normals: 1, texture coordinates: 4, faces: 2

o obj59
v 3 3 3
v 3 0 3
v 13 3 3
v 13 0 3
vn 0 0 1
vt 0 0.75
vt 0 0.875
vt 0.4375 0.75
vt 0.4375 0.875
usemtl mat0
f 233/233/59 234/234/59 235/235/59
f 234/234/59 236/236/59 235/235/59
# Vertices: 4, normals: 1, texture coordinates: 4, faces: 2

o obj60
v 13 3 0
v 13 0 0
v 3 3 0
v 3 0 0
vn 0 0 -1
vt 0 0.875
vt 0 1
vt 0.4375 0.875
vt 0.4375 1
usemtl mat0
f 237/237/60 238/238/60 239/239/60
f 238/238/60 240/240/60 239/239/60
# Vertices: 4, normals: 1, texture coordinates: 4, faces: 2

o obj61
v 13 16 3
v 13 13 3
v 13 16 0
v 13 13 0
vn 1 0 0
vt 0 0.75
vt 0 0.875
vt 0.125 0.75
vt 0.125 0.875
usemtl mat0
f 241/241/61 242/242/61 243/243/61
f 242/242/61 244/244/61 243/243/61
# Vertices: 4, normals: 1, texture coordinates: 4, faces: 2

o obj62
v 3 16 0
v 3 13 0
v 3 16 3
v 3 13 3
vn -1 0 0
vt 0 0.75
vt 0 0.875
vt 0.125 0.75
vt 0.125 0.875
usemtl mat0
f 245/245/62 246/246/62 247/247/62
f 246/246/62 248/248/62 247/247/62
# Vertices: 4, normals: 1, texture coordinates: 4, faces: 2

o obj63
v 3 16 0
v 3 16 3
v 13 16 0
v 13 16 3
vn 0 1 0
vt 0 0.8125
vt 0 0.9375
vt 0.4375 0.8125
vt 0.4375 0.9375
usemtl mat0
f 249/249/63 250/250/63 251/251/63
f 250/250/63 252/252/63 251/251/63
# Vertices: 4, normals: 1, texture coordinates: 4, faces: 2

o obj64
v 3 13 3
v 3 13 0
v 13 13 3
v 13 13 0
vn 0 -1 0
vt 0 0.75
vt 0 0.875
vt 0.4375 0.75
vt 0.4375 0.875
usemtl mat0
f 253/253/64 254/254/64 255/255/64
f 254/254/64 256/256/64 255/255/64
# Vertices: 4, normals: 1, texture coordinates: 4, faces: 2

o obj65
v 3 16 3
v 3 13 3
v 13 16 3
v 13 13 3
vn 0 0 1
vt 0 0.75
vt 0 0.875
vt 0.4375 0.75
vt 0.4375 0.875
usemtl mat0
f 257/257/65 258/258/65 259/259/65
f 258/258/65 260/260/65 259/259/65
# Vertices: 4, normals: 1, texture coordinates: 4, faces: 2

o obj66
v 13 16 0
v 13 13 0
v 3 16 0
v 3 13 0
vn 0 0 -1
vt 0 0.75
vt 0 0.875
vt 0.4375 0.75
vt 0.4375 0.875
usemtl mat0
f 261/261/66 262/262/66 263/263/66
f 262/262/66 264/264/66 263/263/66
# Vertices: 4, normals: 1, texture coordinates: 4, faces: 2

o obj67
v 16 16 3
v 16 0 3
v 16 16 0
v 16 0 0
vn 1 0 0
vt 0 0
vt 0 0.625
vt 0.125 0
vt 0.125 0.625
usemtl mat0
f 265/265/67 266/266/67 267/267/67
f 266/266/67 268/268/67 267/267/67
# Vertices: 4, normals: 1, texture coordinates: 4, faces: 2

o obj68
v 13 16 0
v 13 0 0
v 13 16 3
v 13 0 3
vn -1 0 0
vt 0 0
vt 0 0.625
vt 0.125 0
vt 0.125 0.625
usemtl mat0
f 269/269/68 270/270/68 271/271/68
f 270/270/68 272/272/68 271/271/68
# Vertices: 4, normals: 1, texture coordinates: 4, faces: 2

o obj69
v 13 16 0
v 13 16 3
v 16 16 0
v 16 16 3
vn 0 1 0
vt 0 0.25
vt 0 0.375
vt 0.125 0.25
vt 0.125 0.375
usemtl mat0
f 273/273/69 274/274/69 275/275/69
f 274/274/69 276/276/69 275/275/69
# Vertices: 4, normals: 1, texture coordinates: 4, faces: 2

o obj70
v 13 0 3
v 13 0 0
v 16 0 3
v 16 0 0
vn 0 -1 0
vt 0 0.28125
vt 0 0.40625
vt 0.125 0.28125
vt 0.125 0.40625
usemtl mat0
f 277/277/70 278/278/70 279/279/70
f 278/278/70 280/280/70 279/279/70
# Vertices: 4, normals: 1, texture coordinates: 4, faces: 2

o obj71
v 13 16 3
v 13 0 3
v 16 16 3
v 16 0 3
vn 0 0 1
vt 0.125 0
vt 0.125 0.625
vt 0.25 0
vt 0.25 0.625
usemtl mat0
f 281/281/71 282/282/71 283/283/71
f 282/282/71 284/284/71 283/283/71
# Vertices: 4, normals: 1, texture coordinates: 4, faces: 2

o obj72
v 16 16 0
v 16 0 0
v 13 16 0
v 13 0 0
vn 0 0 -1
vt 0.125 0
vt 0.125 0.625
vt 0.25 0
vt 0.25 0.625
usemtl mat0
f 285/285/72 286/286/72 287/287/72
f 286/286/72 288/288/72 287/287/72
# Vertices: 4, normals: 1, texture coordinates: 4, faces: 2

o obj73
v 3 16 3
v 3 0 3
v 3 16 0
v 3 0 0
vn 1 0 0
vt 0.125 0
vt 0.125 0.625
vt 0.25 0
vt 0.25 0.625
usemtl mat0
f 289/289/73 290/290/73 291/291/73
f 290/290/73 292/292/73 291/291/73
# Vertices: 4, normals: 1, texture coordinates: 4, faces: 2

o obj74
v 0 16 0
v 0 0 0
v 0 16 3
v 0 0 3
vn -1 0 0
vt 0.125 0
vt 0.125 0.625
vt 0.25 0
vt 0.25 0.625
usemtl mat0
f 293/293/74 294/294/74 295/295/74
f 294/294/74 296/296/74 295/295/74
# Vertices: 4, normals: 1, texture coordinates: 4, faces: 2

o obj75
v 0 16 0
v 0 16 3
v 3 16 0
v 3 16 3
vn 0 1 0
vt 0 0.15625
vt 0 0.28125
vt 0.125 0.15625
vt 0.125 0.28125
usemtl mat0
f 297/297/75 298/298/75 299/299/75
f 298/298/75 300/300/75 299/299/75
# Vertices: 4, normals: 1, texture coordinates: 4, faces: 2

o obj76
v 0 0 3
v 0 0 0
v 3 0 3
v 3 0 0
vn 0 -1 0
vt 0 0.25
vt 0 0.375
vt 0.125 0.25
vt 0.125 0.375
usemtl mat0
f 301/301/76 302/302/76 303/303/76
f 302/302/76 304/304/76 303/303/76
# Vertices: 4, normals: 1, texture coordinates: 4, faces: 2

o obj77
v 0 16 3
v 0 0 3
v 3 16 3
v 3 0 3
vn 0 0 1
vt 0 0
vt 0 0.625
vt 0.125 0
vt 0.125 0.625
usemtl mat0
f 305/305/77 306/306/77 307/307/77
f 306/306/77 308/308/77 307/307/77
# Vertices: 4, normals: 1, texture coordinates: 4, faces: 2

o obj78
v 3 16 0
v 3 0 0
v 0 16 0
v 0 0 0
vn 0 0 -1
vt 0 0
vt 0 0.625
vt 0.125 0
vt 0.125 0.625
usemtl mat0
f 309/309/78 310/310/78 311/311/78
f 310/310/78 312/312/78 311/311/78
# Vertices: 4, normals: 1, texture coordinates: 4, faces: 2

