# File generated by ImageToStl.com - Free Image and 3D model conversion tools

mtllib psx-canned-tomato-soup.mtl

o obj1
v 0.28125 0 0.11649756
v 0.11649756 0 0.28125
v 0 0 0
v 0.11649756 0 0.28125
v 0.28125 0 0.11649756
v 0.28125 0.75 0.11649756
v 0.11649756 0.75 0.28125
v 0.11649756 0.75 0.28125
v 0.28125 0.75 0.11649756
v 0 0.75 0
v 0.28125 0 -0.11649756
v 0.28125 0 -0.11649756
v 0.28125 0.75 -0.11649756
v 0.28125 0.75 -0.11649756
v 0.11649756 0 -0.28125
v 0.11649756 0 -0.28125
v 0.11649756 0.75 -0.28125
v 0.11649756 0.75 -0.28125
v -0.11649756 0 -0.28125
v -0.11649756 0 -0.28125
v -0.11649756 0.75 -0.28125
v -0.11649756 0.75 -0.28125
v -0.28125 0 -0.11649756
v -0.28125 0 -0.11649756
v -0.28125 0.75 -0.11649756
v -0.28125 0.75 -0.11649756
v -0.28125 0 0.11649756
v -0.28125 0 -0.11649756
v -0.28125 0 0.11649756
v -0.28125 0.75 0.11649756
v -0.28125 0.75 -0.11649756
v -0.28125 0.75 0.11649756
v -0.11649756 0 0.28125
v -0.11649756 0 0.28125
v -0.11649756 0.75 0.28125
v -0.11649756 0.75 0.28125
vn -0 -1 0
vn 0.70711 0 0.70711
vn 0 1 0
vn 1 0 0
vn 0.70711 0 -0.70711
vn 0 0 -1
vn -0.70711 0 -0.70711
vn -1 0 -0
vn -0.70711 0 0.70711
vn -0 0 1
vt 0.14062 0.70881
vt 0.09944 0.75
vt 0.07031 0.67969
vt 0.1875 0.8125
vt 0.25 0.8125
vt 0.25 1
vt 0.1875 1
vt 0.27131 0.60938
vt 0.3125 0.65056
vt 0.24219 0.67969
vt 0.14062 0.65056
vt 0.3125 0.8125
vt 0.3125 1
vt 0.3125 0.70881
vt 0.09944 0.60938
vt 0.375 0.8125
vt 0.375 1
vt 0.27131 0.75
vt 0.04119 0.60938
vt 0.4375 0.8125
vt 0.4375 1
vt 0.21306 0.75
vt 0 0.65056
vt 0.5 0.8125
vt 0.5 1
vt 0.17188 0.70881
vt 0 0.70881
vt 0 0.8125
vt 0.0625 0.8125
vt 0.0625 1
vt 0 1
vt 0.17188 0.65056
vt 0.04119 0.75
vt 0.125 0.8125
vt 0.125 1
vt 0.21306 0.60938
usemtl mat0
f 1/1/1 2/2/1 3/3/1
f 4/4/2 5/5/2 6/6/2
f 4/4/2 6/6/2 7/7/2
f 8/8/3 9/9/3 10/10/3
f 11/11/1 1/1/1 3/3/1
f 5/5/4 12/12/4 13/13/4
f 5/5/4 13/13/4 6/6/4
f 9/9/3 14/14/3 10/10/3
f 15/15/1 11/11/1 3/3/1
f 12/12/5 16/16/5 17/17/5
f 12/12/5 17/17/5 13/13/5
f 14/14/3 18/18/3 10/10/3
f 19/19/1 15/15/1 3/3/1
f 16/16/6 20/20/6 21/21/6
f 16/16/6 21/21/6 17/17/6
f 18/18/3 22/22/3 10/10/3
f 23/23/1 19/19/1 3/3/1
f 20/20/7 24/24/7 25/25/7
f 20/20/7 25/25/7 21/21/7
f 22/22/3 26/26/3 10/10/3
f 27/27/1 23/23/1 3/3/1
f 28/28/8 29/29/8 30/30/8
f 28/28/8 30/30/8 31/31/8
f 26/26/3 32/32/3 10/10/3
f 33/33/1 27/27/1 3/3/1
f 29/29/9 34/34/9 35/35/9
f 29/29/9 35/35/9 30/30/9
f 32/32/3 36/36/3 10/10/3
f 2/2/1 33/33/1 3/3/1
f 34/34/10 4/4/10 7/7/10
f 34/34/10 7/7/10 35/35/10
f 36/36/3 8/8/3 10/10/3
# Vertices: 36, normals: 10, texture coordinates: 36, faces: 32

