# File generated by ImageToStl.com - Free Image and 3D model conversion tools

mtllib psx-painting.mtl

o obj1
v 0.046875 0.125 0.6875
v 0.046875 1.25 0.6875
v 0.046875 1.25 -0.6875
v 0.046875 0.125 -0.6875
v -0.0625 1.3125 0.75
v 0.0625 1.375 0.8125
v 0.0625 1.375 -0.8125
v -0.0625 1.3125 -0.75
v 0.0625 0 -0.8125
v 0.0625 0 0.8125
v -0.0625 0.0625 0.75
v -0.0625 0.0625 -0.75
v 0.0625 0 0.8125
v 0.0625 1.375 0.8125
v -0.0625 1.3125 0.75
v -0.0625 0.0625 0.75
v -0.0625 1.3125 -0.75
v 0.0625 1.375 -0.8125
v 0.0625 0 -0.8125
v -0.0625 0.0625 -0.75
v -0.015625 1.25 0.6875
v -0.015625 0.125 0.6875
v -0.0625 0.0625 0.75
v -0.0625 1.3125 0.75
v -0.015625 1.25 -0.6875
v -0.015625 1.25 0.6875
v -0.0625 1.3125 0.75
v -0.0625 1.3125 -0.75
v -0.015625 0.125 -0.6875
v -0.015625 1.25 -0.6875
v -0.0625 1.3125 -0.75
v -0.0625 0.0625 -0.75
v -0.015625 0.125 0.6875
v -0.015625 0.125 -0.6875
v -0.0625 0.0625 -0.75
v -0.0625 0.0625 0.75
v 0.046875 1.25 0.6875
v 0.046875 0.125 0.6875
v -0.015625 0.125 0.6875
v -0.015625 1.25 0.6875
v 0.046875 1.25 -0.6875
v 0.046875 1.25 0.6875
v -0.015625 1.25 0.6875
v -0.015625 1.25 -0.6875
v 0.046875 0.125 -0.6875
v 0.046875 1.25 -0.6875
v -0.015625 1.25 -0.6875
v -0.015625 0.125 -0.6875
v 0.046875 0.125 0.6875
v 0.046875 0.125 -0.6875
v -0.015625 0.125 -0.6875
v -0.015625 0.125 0.6875
v 0.0625 1.375 0.8125
v 0.0625 0 0.8125
v 0.0625 0 -0.8125
v 0.0625 1.375 -0.8125
vn -1 0 0
vn -0.44721 0.89443 0
vn -0.44721 -0.89443 0
vn -0.44721 0 0.89443
vn -0.44721 0 -0.89443
vn -0.8 0 -0.6
vn -0.8 -0.6 0
vn -0.8 0 0.6
vn -0.8 0.6 0
vn 0 0 -1
vn 0 -1 0
vn 0 0 1
vn 0 1 0
vn 1 0 0
vt 0.34375 0.71875
vt 0.34375 1
vt 0 1
vt 0 0.71875
vt 0.39062 0.625
vt 0.40625 0.65625
vt 0 0.65625
vt 0.01562 0.625
vt 0.34375 0.65625
vt 0.32812 0.625
vt 0.01562 0.6875
vt 0.29688 0.6875
vt 0.3125 0.70312
vt 0 0.70312
vt 0.35938 0.6875
vt 0.375 0.70312
vt 0 0.95312
vt 0.28125 0.95312
vt 0.28125 0.96875
vt 0 0.96875
vt 0.34375 0.96875
vt 0 0.95312
vt 0.34375 0.95312
vt 0.28125 1
vt 0 1
vt 0 0.98438
vt 0.28125 0.98438
vt 0 0.98438
vt 0.34375 0.98438
vt 0.43945 1
vt 0.43945 0.65625
vt 0.8457 0.65625
vt 0.8457 1
usemtl mat0
f 1/1/1 2/2/1 3/3/1
f 1/1/1 3/3/1 4/4/1
f 5/5/2 6/6/2 7/7/2
f 5/5/2 7/7/2 8/8/2
f 9/6/3 10/7/3 11/8/3
f 9/6/3 11/8/3 12/5/3
f 13/9/4 14/7/4 15/8/4
f 13/9/4 15/8/4 16/10/4
f 17/10/5 18/9/5 19/7/5
f 17/10/5 19/7/5 20/8/5
f 21/11/6 22/12/6 23/13/6
f 21/11/6 23/13/6 24/14/6
f 25/11/7 26/15/7 27/16/7
f 25/11/7 27/16/7 28/14/7
f 29/11/8 30/12/8 31/13/8
f 29/11/8 31/13/8 32/14/8
f 33/11/9 34/15/9 35/16/9
f 33/11/9 35/16/9 36/14/9
f 37/17/10 38/18/10 39/19/10
f 37/17/10 39/19/10 40/20/10
f 41/21/11 42/20/11 43/22/11
f 41/21/11 43/22/11 44/23/11
f 45/24/12 46/25/12 47/26/12
f 45/24/12 47/26/12 48/27/12
f 49/2/13 50/3/13 51/28/13
f 49/2/13 51/28/13 52/29/13
f 53/30/14 54/31/14 55/32/14
f 53/30/14 55/32/14 56/33/14
# Vertices: 56, normals: 14, texture coordinates: 33, faces: 28

o obj2
v -0.015625 0.125 0.6875
v -0.015625 1.25 0.6875
v -0.015625 1.25 -0.6875
v -0.015625 0.125 -0.6875
vn -1 0 0
vt 1 0.125
vt 1 1
vt 0 1
vt 0 0.125
usemtl mat1
f 57/34/15 58/35/15 59/36/15
f 57/34/15 59/36/15 60/37/15
# Vertices: 4, normals: 1, texture coordinates: 4, faces: 2

